/* XPM */
static const char * const camera_photo16[] = {
/* columns rows colors chars-per-pixel */
"16 16 146 2",
"   c #010101",
".  c #020202",
"X  c #070707",
"o  c #080808",
"O  c #0A0A09",
"+  c #0A0A0A",
"@  c #0E0E0E",
"#  c #0F0F0F",
"$  c #111211",
"%  c #121212",
"&  c #121415",
"*  c #131516",
"=  c #141414",
"-  c #141515",
";  c #171717",
":  c #151718",
">  c #181818",
",  c #191919",
"<  c #191A1A",
"1  c #1A1A1A",
"2  c #1A1B1A",
"3  c #1E1E1D",
"4  c #1F1F1F",
"5  c #1D1F20",
"6  c #1C2021",
"7  c #202020",
"8  c #212121",
"9  c #212221",
"0  c #222222",
"q  c #212426",
"w  c #242424",
"e  c #252626",
"r  c #262626",
"t  c #272726",
"y  c #272727",
"u  c #282828",
"i  c #292929",
"p  c #292A29",
"a  c #2A2B29",
"s  c #29292A",
"d  c #2B2C29",
"f  c #2C2D2A",
"g  c #282C2E",
"h  c #2E2E2E",
"j  c #30312E",
"k  c #2B2F30",
"l  c #2E3030",
"z  c #2E3334",
"x  c #2E3436",
"c  c #2F3537",
"v  c #303131",
"b  c #313230",
"n  c #343532",
"m  c #323536",
"M  c #373835",
"N  c #393A37",
"B  c #323839",
"V  c #32383A",
"C  c #353939",
"Z  c #363938",
"A  c #363A3B",
"S  c #383838",
"D  c #383A38",
"F  c #393B3B",
"G  c #3A3A3A",
"H  c #383D3F",
"J  c #3A3E3F",
"K  c #3C3C3C",
"L  c #3E403E",
"P  c #3F4241",
"I  c #414141",
"U  c #444747",
"Y  c #484947",
"T  c #484848",
"R  c #484A49",
"E  c #4A4B4B",
"W  c #4A4C49",
"Q  c #4D4E4A",
"!  c #494C4D",
"~  c #4D4E4D",
"^  c #4F504F",
"/  c #4A4F50",
"(  c #4F5153",
")  c #4E5254",
"_  c #4F5354",
"`  c #505251",
"'  c #525350",
"]  c #535453",
"[  c #515454",
"{  c #535755",
"}  c #535657",
"|  c #555654",
" . c #555856",
".. c #565856",
"X. c #575856",
"o. c #5A5B57",
"O. c #525658",
"+. c #50575C",
"@. c #545859",
"#. c #555859",
"$. c #575A58",
"%. c #56595A",
"&. c #5D5E5C",
"*. c #5B605F",
"=. c #60605F",
"-. c #60615F",
";. c #5E6364",
":. c #5E6365",
">. c #606060",
",. c #606160",
"<. c #616160",
"1. c #616562",
"2. c #646561",
"3. c #656663",
"4. c #676964",
"5. c #676865",
"6. c #666C6F",
"7. c #686868",
"8. c #6A6A69",
"9. c #6B6D69",
"0. c #6B6C6B",
"q. c #6C6C6B",
"w. c #6E7375",
"e. c #717271",
"r. c #737472",
"t. c #747574",
"y. c #787977",
"u. c #7D7D7D",
"i. c #7E807D",
"p. c #757E82",
"a. c #7E8487",
"s. c #798488",
"d. c #808180",
"f. c #868785",
"g. c #8B8B8B",
"h. c #8C8C8C",
"j. c #838D90",
"k. c #9A9A9A",
"l. c #AAAAA9",
"z. c #AAABA9",
"x. c #B3B3B2",
"c. c #C3C3C3",
"v. c #C4C4C4",
"b. c #C7C8C7",
"n. c #FFFFFF",
"m. c None",
/* pixels */
"m.m.m.m.m.m.0 u u u 1 m.m.m.m.m.",
"m.m.m.m.m.; v.n.n.n.x.; m.m.m.m.",
"m.m.m.m.m.; f.z.z.z.5.; m.m.m.m.",
"m.m.m.m.m.= j ' o.2.b 1 m.m.m.m.",
"m.0 4 , 1 3 Y m.m.m.| $ 1 1 4 m.",
"u y.r.c.c.9.^ X.*.1.5.i.2.y.d.+ ",
"h 0.d ;.8.X.s.j.a.6.+.{ W n t.+ ",
"u <.d M X.p.w.#._ ( / :.M 0 q.+ ",
"u &.u N :.) #.g & q ! H { y q.+ ",
"u &.d D #.V & @ . . ; z V k <.+ ",
"w *.d P V 6 1 n.5.0 $ k z J <.+ ",
"t &.u E x : 7 7.k.u.y F c C =.+ ",
"t &.f L z 5 . C g.g.I E c C o.X ",
"w ~ | ^ [ k @ 0 w E e.[ O.U K : ",
"m.w 0 4 + z m 0 u K u w 0 0 0 m.",
"m.m.m.m.m.m.w u w w w m.m.m.m.m."
};
