/* XPM */
static char *document_open[] = {
/* columns rows colors chars-per-pixel */
"24 24 179 2",
"   c #3C3C3C",
".  c #454545",
"X  c #464646",
"o  c #4A4A4A",
"O  c #4D4D4D",
"+  c #525252",
"@  c #555753",
"#  c #555555",
"$  c #565854",
"%  c #575955",
"&  c #565957",
"*  c #585A56",
"=  c #595B58",
"-  c #5A5A5A",
";  c #5A5C59",
":  c #5B5D59",
">  c #5A5C5B",
",  c #5C5E5B",
"<  c #5D5F5B",
"1  c #5E5F5C",
"2  c #5E5E5E",
"3  c #616161",
"4  c #656565",
"5  c #6B6B6A",
"6  c #6F6F6F",
"7  c #727272",
"8  c #767676",
"9  c #7A7A7A",
"0  c #7B7B7B",
"q  c #2C5589",
"w  c #395A85",
"e  c #3363A1",
"r  c #3464A1",
"t  c #3464A2",
"y  c #3565A4",
"u  c #3566A4",
"i  c #3566A5",
"p  c #3567A5",
"a  c #3667A4",
"s  c #3667A5",
"d  c #3667A6",
"f  c #3768A5",
"g  c #3768A6",
"h  c #3B69A5",
"j  c #3869A6",
"k  c #3969A7",
"l  c #3C6BA6",
"z  c #3969A8",
"x  c #3A6BA8",
"c  c #697F9A",
"v  c #446FA6",
"b  c #416FA9",
"n  c #4C74A6",
"m  c #4272AF",
"M  c #567AA6",
"N  c #4D7DB6",
"B  c #557EB1",
"V  c #607FA5",
"C  c #4E80B6",
"Z  c #5181B8",
"A  c #5E89BD",
"S  c #6B84A5",
"D  c #758BA6",
"F  c #7098C5",
"G  c #7399C4",
"H  c #709ECF",
"J  c #719ECF",
"K  c #74A0D0",
"L  c #7CA6D3",
"P  c #7DA6D4",
"I  c #7EA7D4",
"U  c #919190",
"Y  c #969795",
"T  c #9C9D9B",
"R  c #9C9D9C",
"E  c #9FA09E",
"W  c #A0A09F",
"Q  c #8F97A1",
"!  c #8B98A8",
"~  c #9B9FA3",
"^  c #9E9FA1",
"/  c #A2A3A5",
"(  c #A4A5A7",
")  c #A5A6A6",
"_  c #A6A6A6",
"`  c #A6A7A9",
"'  c #A8A8A8",
"]  c #AAAAAA",
"[  c #ABABAB",
"{  c #ACACAC",
"}  c #ADADAD",
"|  c #AEAEAE",
" . c #AFAFAF",
".. c #B1B1B1",
"X. c #B3B3B3",
"o. c #B5B5B4",
"O. c #B9B9B9",
"+. c #BDBDBD",
"@. c #80A2CB",
"#. c #86A8CF",
"$. c #80A9D5",
"%. c #84ABD5",
"&. c #84ABD6",
"*. c #87ADD7",
"=. c #8DADD2",
"-. c #89AED8",
";. c #8AAFD8",
":. c #8CB1D7",
">. c #8BB0D9",
",. c #8DB1D9",
"<. c #8EB2D8",
"1. c #8EB3D9",
"2. c #8FB2DA",
"3. c #95B3D6",
"4. c #90B2D9",
"5. c #90B3D9",
"6. c #92B5DA",
"7. c #92B4DB",
"8. c #92B5DB",
"9. c #94B6DB",
"0. c #94B6DC",
"q. c #95B6DC",
"w. c #94B7DC",
"e. c #95B7DC",
"r. c #9BB7D9",
"t. c #96B8DC",
"y. c #97B8DC",
"u. c #96B8DD",
"i. c #9DB9DA",
"p. c #9ABADD",
"a. c #9DBCDE",
"s. c #A1BEDE",
"d. c #A3BFDE",
"f. c #A2BFE0",
"g. c #A7C1DE",
"h. c #A7C1DF",
"j. c #A8C3E2",
"k. c #AAC5E1",
"l. c #A9C4E2",
"z. c #A9C5E2",
"x. c #B6CEE6",
"c. c #BED3EA",
"v. c #BFD4EA",
"b. c #C1C1C1",
"n. c #C4C4C4",
"m. c #C9C9C8",
"M. c #CBCBCB",
"N. c #CDCDCD",
"B. c #CFCFCF",
"V. c #D0D0D0",
"C. c #D0D1D0",
"Z. c #D2D2D2",
"A. c #D3D3D3",
"S. c #D5D5D4",
"D. c #D4D5D7",
"F. c #DADADA",
"G. c #DCDCDC",
"H. c #DDDDDD",
"J. c #C0D4EA",
"K. c #E0E0E0",
"L. c #E1E1E1",
"P. c #E2E2E2",
"I. c #E3E3E3",
"U. c #E2E3E5",
"Y. c #E3E4E6",
"T. c #E5E5E5",
"R. c #E4E5E7",
"E. c #E6E6E6",
"W. c #E5E6E8",
"Q. c #E6E7E9",
"!. c #E9E9E9",
"~. c #F7F7F7",
"^. c #F8F8F8",
"/. c #F9F9F9",
"(. c #FAFAFA",
"). c #FBFBFB",
"_. c #FDFDFD",
"`. c #FEFEFE",
"'. c None",
/* pixels */
"'.'.'.'.'.'.'.'.'.'.'.'.'.'.'.'.'.'.'.'.'.'.'.'.",
"'.'.'.'.'.'.'.'.'.% % % % % * * < '.'.'.'.'.'.'.",
"'.'.'.'.'.'.'.'.'.% ~././.).).).W > '.'.'.'.'.'.",
"'.'.0 0 0 0 0 0 0 @ F.V.S.V.B.N.`.U < '.'.'.'.'.",
"'.'.8 S.V.B.N.N.M.@ H.R R R R S.`.`.Y > '.'.'.'.",
"'.'.7 N.X. .{ [ ] % L.L.L.L.K.K.Q.E.N.1 '.'.'.'.",
"'.'.6 N. .{ ] _ _ % E.E T T R H.L.E.C.> '.'.'.'.",
"'.'.5 m.{ ` ` / ^ % W.W.W.W.Y.Y.Y.Y.S.> '.'.'.'.",
"'.'.4 n.! a g k g g z k k g k g k g g s s s '.'.",
"'.'.1 g.D G v.v.c.c.v.v.v.v.v.v.J.J.v.J.x.s '.'.",
"'.'.2 +.S @.l.1.1.1.1.1.1.1.1.1.1.1.1.u.l.g '.'.",
"'.'.- o.S =.l.6.8.8.8.8.8.8.6.6.8.8.6.8.s.k '.'.",
"'.'.- o.M r.j.q.u.u.u.u.u.u.u.u.q.u.>.q.i.x '.'.",
"'.'.+ X.n g.j.p.p.p.p.p.p.p.p.p.e.1.*.a.3.z '.'.",
"'.'.O  .v j.s.p.p.p.u.e.8.8.1.;.*.*.;.a.%.k '.'.",
"'.'.o ] h s.q.;.*.L L L P L L P L L L 6.G r '.'.",
"'.'.X _ a 4.K J J J J J J J J J J J J %.A '.'.'.",
"'.'.X ^ h %.J J J J J J H H H H H H J L N '.'.'.",
"'.'.X Q B 4.;.:.:.:.:.:.:.:.:.:.:.:.:.1.m '.'.'.",
"'.'.X c b Z Z Z Z Z Z Z Z Z Z Z Z Z Z C s '.'.'.",
"'.'.  w r r r r r r r r r r r r r r r e q '.'.'.",
"'.'.'.'.'.'.'.'.'.'.'.'.'.'.'.'.'.'.'.'.'.'.'.'.",
"'.'.'.'.'.'.'.'.'.'.'.'.'.'.'.'.'.'.'.'.'.'.'.'.",
"'.'.'.'.'.'.'.'.'.'.'.'.'.'.'.'.'.'.'.'.'.'.'.'."
};
