/* XPM */
static char *edit_select_all[] = {
/* columns rows colors chars-per-pixel */
"24 24 58 1",
"  c #000000",
". c #888A85",
"X c #898B86",
"o c #8A8B87",
"O c #8A8C87",
"+ c #8B8D88",
"@ c #8C8E89",
"# c #8D8F8A",
"$ c #8E908B",
"% c #8096AE",
"& c #8197AF",
"* c #8298B0",
"= c #859BB3",
"- c #A9BFD7",
"; c #AAC0D8",
": c #ABC1D9",
"> c #ACC2DA",
", c #ADC3DB",
"< c #AEC4DC",
"1 c #AFC5DD",
"2 c #B0C6DE",
"3 c #B1C7DF",
"4 c #B2C8E0",
"5 c #B3C9E1",
"6 c #B4CAE2",
"7 c #DCDCDC",
"8 c #DDDDDD",
"9 c #DEDEDE",
"0 c #DFDFDF",
"q c #E0E0E0",
"w c #E1E1E1",
"e c #E2E2E2",
"r c #E3E3E3",
"t c #E4E4E4",
"y c #E5E5E5",
"u c #E6E6E6",
"i c #E7E7E7",
"p c #E9E9E9",
"a c #EAEAEA",
"s c #ECECEC",
"d c #EDEDED",
"f c #EFEFEF",
"g c #F0F0F0",
"h c #F1F1F1",
"j c #F2F2F2",
"k c #F3F3F3",
"l c #F4F4F4",
"z c #F5F5F5",
"x c #F6F6F6",
"c c #F7F7F7",
"v c #F8F8F8",
"b c #F9F9F9",
"n c #FAFAFA",
"m c #FBFBFB",
"M c #FCFCFC",
"N c #FDFDFD",
"B c #FEFEFE",
"V c None",
/* pixels */
"VVVVVVVVVVVVVVVVVVVVVVVV",
"VVVVVVVVVVVVVVVVVVVVVVVV",
"VVV@...O.......O....$VVV",
"VVV.BBBBBBBBBBmmxmmm.VVV",
"VVV.B7qqqqtqqttttttm+VVV",
"VVV.B7:-::>:>:>>>>tm+VVV",
"VVV.Bq>&*&&>&*&&&>tm+VVV",
"VVV.B7>&&&&>>><>>>pm+VVV",
"VVV.Bq>&&&&><<<<<ppm.VVV",
"VVV.Bq>*&&&<&&&&<pfm+VVV",
"VVV.Bq>>>><<2<<2<fpm+VVV",
"VVV.Bq>:::>>><>2ffjm+VVV",
"VVV.Bq<********4jfjx+VVV",
"VVV.mt<<<2<22224jjjx+VVV",
"VVV.Bt<::>><<<<2<4jx+VVV",
"VVV.mt<****** * &4xm+VVV",
"VVV.mt2<<22246 666xx+VVV",
"VVV.mt<>><<<2x xxmxx+VVV",
"VVV.mp2=====4x mmmxm+VVV",
"VVV.mt<<<2224x xxxxx+VVV",
"VVV.xxxmmxmxx m xmxmOVVV",
"VVV@................$VVV",
"VVVVVVVVVVVVVVVVVVVVVVVV",
"VVVVVVVVVVVVVVVVVVVVVVVV"
};
