/* XPM */
static const char * const folder[] = {
/* columns rows colors chars-per-pixel */
"24 24 151 2",
"   c #3C3C3C",
".  c #454545",
"X  c #464646",
"o  c #4A4A4A",
"O  c #4D4D4D",
"+  c #525252",
"@  c #555555",
"#  c #5A5A5A",
"$  c #5E5E5E",
"%  c #616161",
"&  c #606163",
"*  c #656565",
"=  c #676767",
"-  c #6B6B6A",
";  c #6D6D6D",
":  c #6E6E6E",
">  c #6F6F6F",
",  c #727272",
"<  c #747474",
"1  c #767676",
"2  c #797979",
"3  c #7A7A7A",
"4  c #7B7B7B",
"5  c #2C5589",
"6  c #395A85",
"7  c #3363A1",
"8  c #3464A1",
"9  c #3464A2",
"0  c #3565A4",
"q  c #3566A4",
"w  c #3566A5",
"e  c #3567A5",
"r  c #3667A4",
"t  c #3667A5",
"y  c #3667A6",
"u  c #3768A5",
"i  c #3768A6",
"p  c #3B69A5",
"a  c #3868A6",
"s  c #3869A6",
"d  c #3969A7",
"f  c #3C6BA6",
"g  c #3969A8",
"h  c #3A6BA8",
"j  c #697F9A",
"k  c #446FA6",
"l  c #416FA9",
"z  c #4C74A6",
"x  c #4272AF",
"c  c #567AA6",
"v  c #4D7DB6",
"b  c #557EB1",
"n  c #607FA5",
"m  c #4E80B6",
"M  c #5181B8",
"N  c #5E89BD",
"B  c #6B84A5",
"V  c #758BA6",
"C  c #7098C5",
"Z  c #7399C4",
"A  c #709ECF",
"S  c #719ECF",
"D  c #74A0D0",
"F  c #7CA6D3",
"G  c #7DA6D4",
"H  c #7EA7D4",
"J  c #969696",
"K  c #8F97A1",
"L  c #8B98A8",
"P  c #9B9FA3",
"I  c #9E9FA1",
"U  c #9FA0A2",
"Y  c #A0A1A3",
"T  c #A1A2A4",
"R  c #A2A3A5",
"E  c #A5A5A5",
"W  c #A4A5A7",
"Q  c #A5A6A6",
"!  c #A6A6A6",
"~  c #A7A7A7",
"^  c #A6A7A9",
"/  c #A8A8A8",
"(  c #AAAAAA",
")  c #ABABAB",
"_  c #ACACAC",
"`  c #ADADAD",
"'  c #AEAEAE",
"]  c #AFAFAF",
"[  c #B1B1B1",
"{  c #B3B3B3",
"}  c #B5B5B4",
"|  c #B9B9B9",
" . c #BDBDBD",
".. c #80A2CB",
"X. c #86A8CF",
"o. c #80A9D5",
"O. c #84ABD5",
"+. c #84ABD6",
"@. c #87ADD7",
"#. c #8DADD2",
"$. c #89AED8",
"%. c #8AAFD8",
"&. c #8CB1D7",
"*. c #8BB0D9",
"=. c #8DB1D9",
"-. c #8EB2D8",
";. c #8EB3D9",
":. c #8FB2DA",
">. c #95B3D6",
",. c #90B2D9",
"<. c #90B3D9",
"1. c #92B5DA",
"2. c #92B4DB",
"3. c #92B5DB",
"4. c #94B6DB",
"5. c #94B6DC",
"6. c #95B6DC",
"7. c #94B7DC",
"8. c #95B7DC",
"9. c #9BB7D9",
"0. c #96B8DC",
"q. c #97B8DC",
"w. c #96B8DD",
"e. c #9DB9DA",
"r. c #9ABADD",
"t. c #9DBCDE",
"y. c #A1BEDE",
"u. c #A3BFDE",
"i. c #A2BFE0",
"p. c #A7C1DE",
"a. c #A7C1DF",
"s. c #A8C3E2",
"d. c #AAC5E1",
"f. c #A9C4E2",
"g. c #A9C5E2",
"h. c #B6CEE6",
"j. c #BED3EA",
"k. c #BFD4EA",
"l. c #C1C1C1",
"z. c #C4C4C4",
"x. c #C8C8C8",
"c. c #C9C9C8",
"v. c #CCCCCC",
"b. c #CDCDCD",
"n. c #CECECE",
"m. c #CFCFCF",
"M. c #D0D0D0",
"N. c #D1D1D1",
"B. c #D3D3D3",
"V. c #C0D4EA",
"C. c None",
/* pixels */
"C.C.C.C.C.C.C.C.C.C.C.C.C.C.C.C.C.C.C.C.C.C.C.C.",
"C.C.C.C.C.C.C.C.C.C.C.C.C.C.C.C.C.C.C.C.C.C.C.C.",
"C.C.C.C.C.C.C.C.C.C.C.C.C.C.C.C.C.C.C.C.C.C.C.C.",
"C.C.4 4 4 4 4 4 4 4 4 C.C.C.C.C.C.C.C.C.C.C.C.C.",
"C.C.1 B.N.N.b.b.b.b.J C.C.C.C.C.C.C.C.C.C.C.C.C.",
"C.C., b.{ ' ) ) ) _ ' < > > > > > > > C.C.C.C.C.",
"C.C.> b.' ) ) ) E E E _  .c.b.b.N.m.= C.C.C.C.C.",
"C.C.- c.' ^ W T T U I I I Y Y T T ^ & C.C.C.C.C.",
"C.C.* z.L r s s s s s a a u u u u u r r r y C.C.",
"C.C.% l.V Z V.j.j.j.k.k.j.k.k.k.k.k.j.V.h.r C.C.",
"C.C.$  .B ..f.;.;.;.;.;.;.;.;.;.;.;.;.r.s.r C.C.",
"C.C.# | n #.f.3.3.3.3.3.3.3.3.3.2.2.2.8.i.h C.C.",
"C.C.@ } c 9.s.8.w.w.w.w.w.w.w.w.8.8.%.8.r.h C.C.",
"C.C.+ { z a.s.r.r.r.r.r.r.r.r.r.q.;.$.r.>.h C.C.",
"C.C.O ' k a.i.r.r.r.8.8.4.2.;.$.@.@.$.r.X.h C.C.",
"C.C.o ) p u.8.%.+.G F F F F F G F F F 2.C r C.C.",
"C.C.. ~ u 3.D A A A A A A S S S S S S +.N C.C.C.",
"C.C.X J f H A A A A A A A A A A A A A F b C.C.C.",
"C.C.. K b 2.&.&.&.&.&.&.&.&.&.&.&.&.&.&.x C.C.C.",
"C.C.. B l M M M M M M M M M M M M M M M r C.C.C.",
"C.C.  6 7 8 8 8 8 8 8 8 8 8 8 8 8 8 9 9 5 C.C.C.",
"C.C.C.C.C.C.C.C.C.C.C.C.C.C.C.C.C.C.C.C.C.C.C.C.",
"C.C.C.C.C.C.C.C.C.C.C.C.C.C.C.C.C.C.C.C.C.C.C.C.",
"C.C.C.C.C.C.C.C.C.C.C.C.C.C.C.C.C.C.C.C.C.C.C.C."
};
