/* XPM */
static const char * const input_keyboard[] = {
/* columns rows colors chars-per-pixel */
"24 24 88 1",
"  c #7D807A",
". c #81837F",
"X c #838681",
"o c #848581",
"O c #8D8F8A",
"+ c #8E908A",
"@ c #949590",
"# c #969892",
"$ c #999B96",
"% c #9A9B97",
"& c #9D9F9A",
"* c #9EA09B",
"= c #9FA09C",
"- c #9FA09D",
"; c #9FA19D",
": c #A0A09C",
"> c #A0A09D",
", c #A1A39E",
"< c #A1A3A0",
"1 c #A2A3A0",
"2 c #A3A5A0",
"3 c #A3A6A0",
"4 c #A7A7A4",
"5 c #A6A9A2",
"6 c #A7A8A5",
"7 c #A9ABA4",
"8 c #A9ACA7",
"9 c #ACAEA7",
"0 c #ABADA9",
"q c #ACAEAA",
"w c #ADB0AA",
"e c #AEB1AA",
"r c #AFB2AB",
"t c #B1B4AD",
"y c #B3B6AF",
"u c #B4B6B1",
"i c #B4B7B1",
"p c #B4B8B1",
"a c #B7BAB2",
"s c #B7BAB3",
"d c #B9BBB5",
"f c #BABCB8",
"g c #BCBFB9",
"h c #BDC0B9",
"j c #C2C4BD",
"k c #C2C4BF",
"l c #C7C9C3",
"z c #C9CBC7",
"x c #C9CCC7",
"c c #CACDC9",
"v c #CBCECA",
"b c #CCCFCB",
"n c #CDCFCC",
"m c #D0D2CD",
"M c #DADBD5",
"N c #DBDFD6",
"B c #DCE0D8",
"V c #DEE1D9",
"C c #DFE2DA",
"Z c #E0E2DC",
"A c #E0E3DC",
"S c #E1E3DE",
"D c #E1E4DD",
"F c #E2E5DE",
"G c #E2E5DF",
"H c #E3E6DF",
"J c #E4E7E1",
"K c #E5E5E3",
"L c #E5E8E2",
"P c #E7E9E3",
"I c #E7E9E4",
"U c #E7E8E5",
"Y c #E8E9E5",
"T c #E8EAE5",
"R c #EBECE9",
"E c #EBEDE9",
"W c #EBEDEA",
"Q c #ECECEA",
"! c #ECEDEA",
"~ c #EDEDEB",
"^ c #EFF1EE",
"/ c #F0F1EE",
"( c #F2F3F1",
") c #F4F5F3",
"_ c #F8F8F7",
"` c #F8F9F7",
"' c #FAFAF9",
"] c None",
/* pixels */
"]]]]]]]]]]]]]]]]]]]]]]]]",
"]]]]]]]]]]]]]]]]]]]]]]]]",
"]]]]]]]]]]]]]]]]]]]]]]]]",
"]]]]]]]]]]]]]]]]]]]]]]]]",
"]]]]]]]]]]]]]]]]]]]]]]]]",
"]]]]]]]]]]]]]]]]]]]]]]]]",
"]]]]]]]]]]]]]]]:-*--]]]]",
"]]]]]]]]]]]]@$&]]]]-]]]]",
"]]]]]]]]]]]]]]]]]]:-]]]]",
"]]]]]]]]]]]]]]]]]:]]]]]]",
"]]]]]]]]]]]]]]]]:]]]]]]]",
"]]]]]3579wwttaaddhh]]]]]",
"]]]]+MGJE^)`'`)/EYSw]]]]",
"]]]]#NCCCCGGJJLSlUL%]]]]",
"]]]]f^Ekzvvvnx))m()u]]]]",
"]]]o8&*q64644a,:j3,q ]]]",
"]]]-U~~~~~~~~~ERQ~~J1]]]",
"]]]XOOOOOOOOOOOOOOOOo]]]",
"]]]]]]]]]]]]]]]]]]]]]]]]",
"]]]]]]]]]]]]]]]]]]]]]]]]",
"]]]]]]]]]]]]]]]]]]]]]]]]",
"]]]]]]]]]]]]]]]]]]]]]]]]",
"]]]]]]]]]]]]]]]]]]]]]]]]",
"]]]]]]]]]]]]]]]]]]]]]]]]"
};
