/* XPM */
static const char * const list_add[] = {
/* columns rows colors chars-per-pixel */
"24 24 36 1",
"  c #3465A4",
". c #6E9CD2",
"X c #6F9DD2",
"o c #719ED2",
"O c #7DA6D7",
"+ c #7FA8D7",
"@ c #83AAD8",
"# c #86ADD9",
"$ c #8AAFD9",
"% c #8DB1D9",
"& c #90B3DA",
"* c #92B4DA",
"= c #94B6DB",
"- c #95B7DB",
"; c #9FBEE0",
": c #A4C1E2",
"> c #A5C1E2",
", c #AAC4E3",
"< c #B2CAE5",
"1 c #B3CBE5",
"2 c #B5CBE7",
"3 c #B3CCE5",
"4 c #B4CCE5",
"5 c #B5CCE5",
"6 c #B5CCE6",
"7 c #B5CCE7",
"8 c #B6CCE6",
"9 c #B6CDE6",
"0 c #B7CEE6",
"q c #BBD0E7",
"w c #BBD1E7",
"e c #BCD1E7",
"r c #BED3E9",
"t c #C0D3E8",
"y c #D3E0EF",
"u c None",
/* pixels */
"uuuuuuuuuuuuuuuuuuuuuuuu",
"uuuuuuuuuuuuuuuuuuuuuuuu",
"uuuuuuuuuuuuuuuuuuuuuuuu",
"uuuuuuuuuuuuuuuuuuuuuuuu",
"uuuuuuuuuuuuuuuuuuuuuuuu",
"uuuuuuuuuu    uuuuuuuuuu",
"uuuuuuuuuu 44 uuuuuuuuuu",
"uuuuuuuuuu 44 uuuuuuuuuu",
"uuuuuuuuuu 44 uuuuuuuuuu",
"uuuuuuuuuu 44 uuuuuuuuuu",
"uuuuu      44      uuuuu",
"uuuuu rreer4<r0484 uuuuu",
"uuuuu 4--&&%$#@OO; uuuuu",
"uuuuu      >o      uuuuu",
"uuuuuuuuuu >o uuuuuuuuuu",
"uuuuuuuuuu 4o uuuuuuuuuu",
"uuuuuuuuuu 4. uuuuuuuuuu",
"uuuuuuuuuu y, uuuuuuuuuu",
"uuuuuuuuuu    uuuuuuuuuu",
"uuuuuuuuuuuuuuuuuuuuuuuu",
"uuuuuuuuuuuuuuuuuuuuuuuu",
"uuuuuuuuuuuuuuuuuuuuuuuu",
"uuuuuuuuuuuuuuuuuuuuuuuu",
"uuuuuuuuuuuuuuuuuuuuuuuu"
};
