/* XPM */
static const char * const media_eject[] = {
/* columns rows colors chars-per-pixel */
"16 16 50 1",
"  c #525451",
". c #555753",
"X c #565753",
"o c #565854",
"O c #575955",
"+ c #585A56",
"@ c #585B57",
"# c #595B57",
"$ c #5B5C57",
"% c #5A5D57",
"& c #595B58",
"* c #5A5B58",
"= c #595C58",
"- c #5D5F5C",
"; c #5E5F5C",
": c #5F605C",
"> c #60625E",
", c #61635F",
"< c #61645F",
"1 c #626460",
"2 c #636561",
"3 c #636662",
"4 c #646662",
"5 c #6C6E6B",
"6 c #797B78",
"7 c #7D807C",
"8 c #8B8D8A",
"9 c #9B9D99",
"0 c #B1B2B0",
"q c #BCBCBA",
"w c #C9CAC8",
"e c #D6D7D6",
"r c #E0E1E0",
"t c #E8EAE6",
"y c #E9EBE7",
"u c #EAECE8",
"i c #F2F3F1",
"p c #F3F4F2",
"a c #F4F5F3",
"s c #F6F7F6",
"d c #F7F8F7",
"f c #F9FAF9",
"g c #FAFAFA",
"h c #FBFBFA",
"j c #FBFCFB",
"k c #FCFCFC",
"l c #FCFDFC",
"z c #FDFDFD",
"x c #FEFEFE",
"c c None",
/* pixels */
"cccccccccccccccc",
"cccccccccccccccc",
"ccccccc@$ccccccc",
"cccccc qwXcccccc",
"cccccc7kk8cccccc",
"ccccc-sppf<ccccc",
"cccc@edyypr%cccc",
"ccco9juuuuh0=ccc",
"ccc5kkkkkkkk6ccc",
"cc-*444122<:=>cc",
"cccccccccccccccc",
"ccXoooXXXXXXoocc",
"ccXfffhgfffff@cc",
"cc@o@@OOO@@oo@cc",
"cccccccccccccccc",
"cccccccccccccccc"
};
