/* XPM */
static const char * const preferences_system_windows[] = {
/* columns rows colors chars-per-pixel */
"16 16 44 1",
"  c #204A87",
". c #3465A4",
"X c #BABDB6",
"o c #E2E3E0",
"O c #E5E5E5",
"+ c #E5E6E5",
"@ c #E5E5E6",
"# c #E9E9E9",
"$ c #EAE9E9",
"% c #EAE9EA",
"& c #EAEAEA",
"* c #EBEAEA",
"= c #EEEEED",
"- c #EEEEEE",
"; c #EEEFEE",
": c #EFEFEF",
"> c #F0EFEF",
", c #EFF0EF",
"< c #EFEFF0",
"1 c #EFF0F0",
"2 c #F1F2F1",
"3 c #F2F2F2",
"4 c #F3F2F2",
"5 c #F2F2F3",
"6 c #F3F2F3",
"7 c #F2F3F3",
"8 c #F3F3F3",
"9 c #F4F3F3",
"0 c #F5F5F5",
"q c #F6F5F5",
"w c #F6F5F6",
"e c #F5F6F6",
"r c #F6F6F6",
"t c #F7F7F7",
"y c #F8F8F8",
"u c #F8F9F8",
"i c #F9F9F9",
"p c #FAFBFA",
"a c #FBFBFB",
"s c #FCFCFB",
"d c #FDFDFD",
"f c #FEFEFE",
"g c #FFFFFF",
"h c None",
/* pixels */
"hXXXXXXXXXXhhhhh",
"XggggggggggXhhhh",
"Xg        sXhhhh",
"Xs........pXhhhh",
"XptpoXXXXXXXXXXh",
"Xtt0XggggggggggX",
"Xt9tXg        gX",
"X3--Xp........pX",
"X1%%XpyppttyyyyX",
"X,OOXttt0tt3t9yX",
"X3-,Xt99393t39tX",
"hXXXX3-,-<<---,X",
"hhhhX1%%&%%%%%>X",
"hhhhX-OO+OOOOO-X",
"hhhhX9,,,1>->,-X",
"hhhhhXXXXXXXXXXh"
};
