/* XPM */
static const char * const preferences_system[] = {
/* columns rows colors chars-per-pixel */
"24 24 92 1",
"  c #5F5F5E",
". c #797874",
"X c #7C7C7C",
"o c #7D7D7D",
"O c #7F7F7F",
"+ c #204A87",
"@ c #3465A4",
"# c #586D84",
"$ c #5B7189",
"% c #60768F",
"& c #607791",
"* c #637B95",
"= c #4E74A4",
"- c #4571A9",
"; c #547CAE",
": c #597DAB",
"> c #6C85A1",
", c #6584AC",
"< c #7590AE",
"1 c #868686",
"2 c #878787",
"3 c #818A95",
"4 c #919191",
"5 c #999999",
"6 c #9E9E9E",
"7 c #9F9F9E",
"8 c #8D98A5",
"9 c #8193A9",
"0 c #8297B2",
"q c #849CB6",
"w c #97A5B6",
"e c #90A6BE",
"r c #91A6BE",
"t c #A7A7A6",
"y c #ADADAD",
"u c #AFAFAF",
"i c #A4ADB6",
"p c #A2AEBC",
"a c #A7B1BD",
"s c #B5B5B5",
"d c #BBBBBB",
"f c #99ADC3",
"g c #9DB0CA",
"h c #9DB6CE",
"j c #9DB8D2",
"k c #A1B4C8",
"l c #A4BAD0",
"z c #BBC1C8",
"x c #B0C6DB",
"c c #C1C1C1",
"v c #CFCDCA",
"b c #CCCCCC",
"n c #D8D8D7",
"m c #DCDCDC",
"M c #DFDFDF",
"N c #C0D1E2",
"B c #D3DFEA",
"V c #D7E2ED",
"C c #DFE7F0",
"Z c #E3E2E1",
"A c #E3E3E2",
"S c #E4E3E1",
"D c #E7E6E4",
"F c #E8E7E4",
"G c #E8E7E6",
"H c #EBE9E7",
"J c #EAE9E8",
"K c #EAEAEA",
"L c #ECEAE8",
"P c #EDEBE9",
"I c #EDEBEA",
"U c #F2F1EF",
"Y c #EDF2F6",
"T c #EEF3F6",
"R c #F0F0F0",
"E c #F3F2F1",
"W c #F3F3F2",
"Q c #F0F4F7",
"! c #F4F4F4",
"~ c #F6F6F5",
"^ c #F8F7F6",
"/ c #F8F8F7",
"( c #F9F8F7",
") c #F9F9F7",
"_ c #F8F8F8",
"` c #F9F9F8",
"' c #FAFAF9",
"] c #FAFAFA",
"[ c #FBFBFB",
"{ c #FEFEFE",
"} c #FFFFFF",
"| c None",
/* pixels */
"||||||||||||||||||||||||",
"||||||OO||||||||||||||||",
"|||||OK`nO||||||||||||||",
"||||||O^EnO||||||||0@|||",
"|||||||OP`O|||||||@{=@||",
"||XOO||dP`O||||||@{by,||",
"||OGKOyZK`.||||||@ms@|||",
"||5GUPPHHH`O||||@`@@||||",
"|||2v)`))HH)O||@{@||||||",
"||||6OOOs`HH~7@`@|||||||",
"|||||||||O`Gz-!@||||||||",
"||||||||||Og@M:t||||||||",
"||||||||+++@!;i[O|||||||",
"|||||||+<lr+@acZ{O||||||",
"||||||+<Bph*+O{HH{O|||||",
"|||||+qV8*j&+|O{PH{O||||",
"||||+fC9#j<$+||O{HK{2|||",
"|||+kT9%j<$+||||O{S {O||",
"||+rQw%j<$+||||||O{EEO||",
"||+xT3j<$+||||||||4OX|||",
"||+>jNr$+|||||||||||||||",
"|||+>>*+||||||||||||||||",
"||||+++|||||||||||||||||",
"||||||||||||||||||||||||"
};
