/* XPM */
static const char * const system_log_out[] = {
/* columns rows colors chars-per-pixel */
"24 24 205 2",
"   c #444542",
".  c #525450",
"X  c #555753",
"o  c #575955",
"O  c #585A56",
"+  c #595B57",
"@  c #5A5C58",
"#  c #5B5D59",
"$  c #5F615D",
"%  c #606060",
"&  c #626262",
"*  c #626460",
"=  c #646463",
"-  c #656665",
";  c #666666",
":  c #6A6A6A",
">  c #6A6C69",
",  c #6C6C6C",
"<  c #70726F",
"1  c #727272",
"2  c #737373",
"3  c #737571",
"4  c #747474",
"5  c #757575",
"6  c #787976",
"7  c #787A77",
"8  c #797979",
"9  c #7A7A7A",
"0  c #7B7B7A",
"q  c #7B7B7B",
"w  c #7E7E7E",
"e  c #A50000",
"r  c #A60000",
"t  c #A60202",
"y  c #A60303",
"u  c #A60404",
"i  c #AF0F0F",
"p  c #AB1010",
"a  c #AB1111",
"s  c #AC1111",
"d  c #AE1313",
"f  c #AF1B1B",
"g  c #B81A1A",
"h  c #A52221",
"j  c #B12121",
"k  c #B62F2F",
"l  c #B93737",
"z  c #BB3E3E",
"x  c #CC0202",
"c  c #CD0404",
"v  c #D11818",
"b  c #C02726",
"n  c #D32121",
"m  c #D32323",
"M  c #D52E2E",
"N  c #C53737",
"B  c #C93131",
"V  c #D63131",
"C  c #D63232",
"Z  c #D73535",
"A  c #D53939",
"S  c #A44342",
"D  c #C14848",
"F  c #D94343",
"G  c #D94444",
"H  c #D94747",
"J  c #DA4A4A",
"K  c #DB4C4C",
"L  c #DB4D4D",
"P  c #DC4F4F",
"I  c #C65353",
"U  c #CE5555",
"Y  c #DD5454",
"T  c #DE5D5D",
"R  c #E37272",
"E  c #E47878",
"W  c #808080",
"Q  c #818181",
"!  c #838383",
"~  c #828481",
"^  c #858683",
"/  c #868885",
"(  c #888888",
")  c #898989",
"_  c #8A8B88",
"`  c #8A8A8A",
"'  c #8C8C8C",
"]  c #8D8D8D",
"[  c #8E8E8E",
"{  c #8F8F8F",
"}  c #909090",
"|  c #919191",
" . c #929292",
".. c #939393",
"X. c #949592",
"o. c #949494",
"O. c #959595",
"+. c #959695",
"@. c #969694",
"#. c #969696",
"$. c #979797",
"%. c #989996",
"&. c #989898",
"*. c #999999",
"=. c #9A9A9A",
"-. c #9A9B9A",
";. c #9B9B9B",
":. c #9E9B99",
">. c #9C9C9C",
",. c #9D9D9D",
"<. c #9E9F9D",
"1. c #9F9F9F",
"2. c #A0A19F",
"3. c #A0A0A0",
"4. c #A1A1A1",
"5. c #A2A2A2",
"6. c #A3A3A3",
"7. c #A4A4A4",
"8. c #A5A5A5",
"9. c #A6A6A6",
"0. c #A7A7A7",
"q. c #A9ACA7",
"w. c #A8A8A8",
"e. c #A9A9A9",
"r. c #AAAAAA",
"t. c #ABABAB",
"y. c #ACACAC",
"u. c #ADADAD",
"i. c #B0B0B0",
"p. c #B1B1B1",
"a. c #B3B3B3",
"s. c #B4B4B4",
"d. c #B5B5B5",
"f. c #B7B7B7",
"g. c #B9BCB5",
"h. c #B9B9B9",
"j. c #B9BAB9",
"k. c #BABABA",
"l. c #BCBCBC",
"z. c #BFBFBF",
"x. c #E88E8E",
"c. c #E99191",
"v. c #EA9797",
"b. c #EC9E9E",
"n. c #EBA7A7",
"m. c #BFC2BB",
"M. c #C2C5BF",
"N. c #C1C1C1",
"B. c #C2C2C2",
"V. c #C3C3C3",
"C. c #C2C4C0",
"Z. c #C3C6C0",
"A. c #C4C6C0",
"S. c #C4C7C1",
"D. c #C5C7C1",
"F. c #C4C5C2",
"G. c #C5C6C2",
"H. c #C4C4C4",
"J. c #C5C5C5",
"K. c #C6C6C6",
"L. c #C5C8C1",
"P. c #C5C8C2",
"I. c #C8C8C8",
"U. c #CBCDC8",
"Y. c #D0D2CD",
"T. c #D1D2CE",
"R. c #D2D3CF",
"E. c #D2D4D0",
"W. c #D3D4D0",
"Q. c #D4D4D4",
"!. c #D8D9D5",
"~. c #DDDEDA",
"^. c #DEDFDB",
"/. c #DDDDDC",
"(. c #E7C1C1",
"). c #F0D8D8",
"_. c #F1DBDB",
"`. c #E0E1DD",
"'. c #E0E1DE",
"]. c #E0E2DE",
"[. c #E1E2DE",
"{. c #E3E4E2",
"}. c #E8E9E7",
"|. c #E8E8E8",
" X c #E9EAE8",
".X c #EBECEA",
"XX c #EFEFED",
"oX c #F3E7E7",
"OX c #F7EEEE",
"+X c #F0F0EF",
"@X c #F0F1F0",
"#X c #F4F4F3",
"$X c #F5F5F4",
"%X c #F6F7F6",
"&X c #F7F7F6",
"*X c #F8F8F7",
"=X c #F9F8F8",
"-X c #F9F9F8",
";X c #F9F9F9",
":X c #FAFAF9",
">X c #FAFAFA",
",X c #FBFBFA",
"<X c #FBFBFB",
"1X c #FCFCFC",
"2X c None",
/* pixels */
"2X2X2X2X2X2X2X2X2X2X2X2X2X2X2X2X2X2X2X2X2X2X2X2X",
"2X2X2X2X2X2X2X2X2X2X2X2X2X2X2X2X2X2X2X2X2X2X2X2X",
"2X2X# X X X X o X X O * < 6 6 3 7 2X2X2X2X2X2X2X",
"2X2XX r.` w 4 : ; % %  .&X&X&XXX~ 2X2X2X2X2X2X2X",
"2X2XX p.[ ! 8 1 : ; , 3.&X=X1X=X%.2X2X2X2X2X2X2X",
"2X2XX h.o.` ! 8 3 , 4 u.=X1X1X,X1.2X2X2X2X2X2X2X",
"2X2XX z.>. .` w 9 4 8 s.=X1X1X=X2.2X2X2X2X2X2X2X",
"2X2XX N.3.*. .` ! 9 ! k.,X1X1X,X3.2X2Xr 2X2X2X2X",
"2X2Xo V.3.,.o.' 7.5.{ z.=X1X1X1X2.2Xl i 2X2X2X2X",
"2X2XX V.7.>.o.| ` r.a.B.=X1X1X;XS D n.d u u r 2X",
"2X2XX V.e.1.*.| ) ) f.l.=X1XOXz I x.v.b.b.b.r 2X",
"2X2XX V.e.1.*.o.o.I.{ h.=X_.j U R K K P L c.r 2X",
"2X2Xo V.e.3.,.o.z.r.Q N.,Xk N T V M m v n E u 2X",
"2X2Xo V.r.7.,.i.s.Q ' K.,X(.a B V x x x x Y r 2X",
"2X2XX V.r.0.1.,.{ `  .K.%X1X).f k V G G H J r 2X",
"2X2Xo V.r.e.1.*.o.[ o.7.I.|.,XoXh g A r r r r 2X",
"2X2XX N.r.r.7.>.o...*.o.h.^.%X%X:.s i r 2X2X2X2X",
"2X2XX K.r.r.7.>.>.w ; *.Q.@X#X@XX.2Xu r 2X2X2X2X",
"2X2XX K.r.r.u.*.= ^ D.{. X.X.X X/ 2X2X2X2X2X2X2X",
"2X2XX N.u.y.0 ` D.!.~.[.[.[.'.~.8 2X2X2X2X2X2X2X",
"2X2X. K.o.X.M.U.Y.Y.W.R.W.R.Y.Y.: 2X2X2X2X2X2X2X",
"2X2X  q.g.M.M.M.P.P.P.P.P.P.P.V.$ 2X2X2X2X2X2X2X",
"2X2X# X O O + + # + + # # # # O $ 2X2X2X2X2X2X2X",
"2X2X2X2X2X2X2X2X2X2X2X2X2X2X2X2X2X2X2X2X2X2X2X2X"
};
