/* XPM */
static const char * const utilities_terminal[] = {
"24 24 192 2",
"  	c None",
". 	c #E6CD59",
"+ 	c #E3C53E",
"@ 	c #E5C53D",
"# 	c #E3C43A",
"$ 	c #E2C336",
"% 	c #E2C234",
"& 	c #E3C233",
"* 	c #E9D673",
"= 	c #EFDE90",
"- 	c #EAD05F",
"; 	c #E9CF5B",
"> 	c #E8CD55",
", 	c #E7CA4F",
"' 	c #E6C947",
") 	c #E6C63E",
"! 	c #E4C438",
"~ 	c #EBD678",
"{ 	c #EED984",
"] 	c #E8CC4F",
"^ 	c #E7CA4B",
"/ 	c #E6C847",
"( 	c #E5C742",
"_ 	c #E8C83D",
": 	c #E8C63A",
"< 	c #E5C63F",
"[ 	c #EAD676",
"} 	c #ECD779",
"| 	c #E6C63F",
"1 	c #E5C53B",
"2 	c #E5C539",
"3 	c #EDC535",
"4 	c #A0B08A",
"5 	c #88B0CE",
"6 	c #79A4C6",
"7 	c #6EA2CD",
"8 	c #689BCB",
"9 	c #6197C7",
"0 	c #5991C6",
"a 	c #508CC2",
"b 	c #6094C6",
"c 	c #E9D573",
"d 	c #EBD26C",
"e 	c #E3C02D",
"f 	c #E3C12A",
"g 	c #E3C12E",
"h 	c #E8C430",
"i 	c #A4BEC8",
"j 	c #9CBEE1",
"k 	c #74A2CF",
"l 	c #6FA0CF",
"m 	c #689CCB",
"n 	c #5F95C8",
"o 	c #548FC3",
"p 	c #4687C1",
"q 	c #4583BE",
"r 	c #9ED17F",
"s 	c #B3E38A",
"t 	c #A7DE7C",
"u 	c #AAE081",
"v 	c #B1E187",
"w 	c #E5D375",
"x 	c #E9CE5C",
"y 	c #E0BD1B",
"z 	c #DEBB1F",
"A 	c #DBBB2F",
"B 	c #DEBF38",
"C 	c #A4BDC4",
"D 	c #90B7DC",
"E 	c #669BC9",
"F 	c #6197CA",
"G 	c #508BC2",
"H 	c #4484BE",
"I 	c #3B7DBA",
"J 	c #3F7FBB",
"K 	c #DBEFC7",
"L 	c #ACDD81",
"M 	c #9DD96D",
"N 	c #A1DA72",
"O 	c #A4DE79",
"P 	c #E1D46B",
"Q 	c #E5C953",
"R 	c #D8B51A",
"S 	c #D1B521",
"T 	c #CEB630",
"U 	c #D6BB3F",
"V 	c #A0BBC4",
"W 	c #87B1D8",
"X 	c #5891C5",
"Y 	c #518DC3",
"Z 	c #4887C0",
"` 	c #4180BD",
" .	c #387BB9",
"..	c #3777B7",
"+.	c #3C7BB8",
"@.	c #D2ECBE",
"#.	c #A4DB75",
"$.	c #92D55D",
"%.	c #94D761",
"&.	c #9BD665",
"*.	c #D8CA5B",
"=.	c #D9C255",
"-.	c #C8AE19",
";.	c #C4AD21",
">.	c #C2B032",
",.	c #CAB741",
"'.	c #9CB8C3",
").	c #7CAAD3",
"!.	c #4988C0",
"~.	c #4282BE",
"{.	c #3879B8",
"].	c #3678B5",
"^.	c #3573B1",
"/.	c #3C78B5",
"(.	c #D1EBBA",
"_.	c #9BD969",
":.	c #88D14D",
"<.	c #88D14C",
"[.	c #8BD052",
"}.	c #B1C337",
"|.	c #D2B21C",
"1.	c #CEAB13",
"2.	c #C8AF20",
"3.	c #C7B12F",
"4.	c #CEBC3D",
"5.	c #9CB5C1",
"6.	c #71A2CF",
"7.	c #387AB7",
"8.	c #3778B6",
"9.	c #3575B4",
"0.	c #3473B2",
"a.	c #316FAE",
"b.	c #3976B3",
"c.	c #CFE8B6",
"d.	c #91D45C",
"e.	c #7ACC3A",
"f.	c #7CCB39",
"g.	c #7ACA3C",
"h.	c #77CB47",
"i.	c #79CA53",
"j.	c #7CCA5F",
"k.	c #81C96C",
"l.	c #8EB8DF",
"m.	c #6A9AC7",
"n.	c #3678B6",
"o.	c #3576B3",
"p.	c #3373B1",
"q.	c #3170AE",
"r.	c #316EAD",
"s.	c #2E6BAA",
"t.	c #3874B1",
"u.	c #CAE7B2",
"v.	c #89D04A",
"w.	c #70C62B",
"x.	c #70C330",
"y.	c #70C034",
"z.	c #71BE37",
"A.	c #70BB3D",
"B.	c #73BA42",
"C.	c #73BB48",
"D.	c #6F9EC9",
"E.	c #6796C4",
"F.	c #3271B1",
"G.	c #326FAE",
"H.	c #2F6CAC",
"I.	c #2D6BAA",
"J.	c #2D69A9",
"K.	c #2A66A7",
"L.	c #3C76B0",
"M.	c #C5E5AC",
"N.	c #81C946",
"O.	c #69BD29",
"P.	c #68BB2C",
"Q.	c #67B72E",
"R.	c #65B430",
"S.	c #65B232",
"T.	c #64B036",
"U.	c #65AF38",
"V.	c #3A7AB7",
"W.	c #3676B2",
"X.	c #3575B3",
"Y.	c #3474B1",
"Z.	c #3473B1",
"`.	c #9BD17B",
" +	c #79C046",
".+	c #61B526",
"++	c #60B12A",
"@+	c #5DAE29",
"#+	c #5AAB29",
"$+	c #5AA828",
"%+	c #59A62C",
"&+	c #5AA82D",
"                                                ",
"                                                ",
"                                                ",
"                                                ",
"                                                ",
"                  . + @ # $ % &                 ",
"                * = - ; > , ' ) !               ",
"                ~ { ] ^ / ( _ : <               ",
"                [ } | 1 2 3 4 5 6 7 8 9 0 a b   ",
"                c d e f g h i j k l m n o p q   ",
"      r s t u v w x y z A B C D E F 0 G H I J   ",
"      K L M N O P Q R S T U V W X Y Z `  ...+.  ",
"      @.#.$.%.&.*.=.-.;.>.,.'.).!.~.I {.].^./.  ",
"      (._.:.<.[.}.|.1.2.3.4.5.6.I 7.8.9.0.a.b.  ",
"      c.d.e.f.g.h.i.j.k.    l.m.n.o.p.q.r.s.t.  ",
"      u.v.w.x.y.z.A.B.C.    D.E.F.G.H.I.J.K.L.  ",
"      M.N.O.P.Q.R.S.T.U.      V.W.X.Y.Z.Z.t.    ",
"      `. +.+++@+#+$+%+&+                        ",
"                                                ",
"                                                ",
"                                                ",
"                                                ",
"                                                ",
"                                                "};
