/* XPM */
static const char * const view_fullscreen[] = {
/* columns rows colors chars-per-pixel */
"24 24 109 2",
"   c #82837F",
".  c #3465A4",
"X  c #3566A4",
"o  c #3666A4",
"O  c #3667A5",
"+  c #3767A5",
"@  c #3868A5",
"#  c #3B6AA7",
"$  c #406EA9",
"%  c #4370AA",
"&  c #4672AB",
"*  c #4B76AE",
"=  c #4C77AE",
"-  c #4E78AE",
";  c #577FB2",
":  c #5C82B3",
">  c #5F84B4",
",  c #678BB9",
"<  c #6F91BD",
"1  c #7A98C0",
"2  c #848681",
"3  c #888A85",
"4  c #839FC3",
"5  c #8BA6C9",
"6  c #90AACA",
"7  c #99B0CC",
"8  c #9FB4CF",
"9  c #9EB5D1",
"0  c #A0B4CF",
"q  c #A2B6CF",
"w  c #A6BAD4",
"e  c #B7C7DB",
"r  c #B9C7D8",
"t  c #BDCBDC",
"y  c #C7D2DF",
"u  c #C9D3E0",
"i  c #CDD7E2",
"p  c #CCD7E3",
"a  c #CED7E2",
"s  c #CAD6E4",
"d  c #D3DBE6",
"f  c #D9E1EA",
"g  c #DBE2EA",
"h  c #EEEEEC",
"j  c #EFEEEC",
"k  c #EEEFEC",
"l  c #EFEEED",
"z  c #EEEFED",
"x  c #EFEFED",
"c  c #EFEFEE",
"v  c #EFF0EE",
"b  c #F0F0EE",
"n  c #F0F1EE",
"m  c #F0F0EF",
"M  c #F1F1EF",
"N  c #F1F1F0",
"B  c #F2F1F0",
"V  c #F1F2F0",
"C  c #F2F2F0",
"Z  c #F2F2F1",
"A  c #F3F2F1",
"S  c #F2F3F1",
"D  c #F3F3F1",
"F  c #F3F3F2",
"G  c #F4F3F2",
"H  c #F3F4F2",
"J  c #F3F4F3",
"K  c #F4F4F2",
"L  c #F4F4F3",
"P  c #F5F4F3",
"I  c #F4F5F3",
"U  c #F5F5F3",
"Y  c #F4F5F4",
"T  c #F5F5F4",
"R  c #F6F5F4",
"E  c #F6F5F5",
"W  c #F5F6F4",
"Q  c #F5F6F5",
"!  c #F6F6F4",
"~  c #F6F6F5",
"^  c #F7F7F5",
"/  c #F7F6F6",
"(  c #F6F7F6",
")  c #F7F7F6",
"_  c #F8F7F6",
"`  c #F8F7F7",
"'  c #F8F8F6",
"]  c #F8F8F7",
"[  c #F9F9F7",
"{  c #F8F8F8",
"}  c #F9F8F8",
"|  c #F8F9F8",
" . c #F9F9F8",
".. c #F9F9F9",
"X. c #F9FAF9",
"o. c #FAFAF9",
"O. c #FAFAFA",
"+. c #FBFAFA",
"@. c #FAFBFA",
"#. c #FBFBFA",
"$. c #FBFAFB",
"%. c #FBFBFB",
"&. c #FCFBFB",
"*. c #FCFCFB",
"=. c #FBFCFC",
"-. c #FDFCFC",
";. c #FCFCFD",
":. c #FFFFFF",
">. c None",
/* pixels */
">.>.>.>.>.>.>.>.>.>.>.>.>.>.>.>.>.>.>.>.>.>.>.>.",
">.>.>.>.>.>.>.>.>.>.>.>.>.>.>.>.>.>.>.>.>.>.>.>.",
">.>.3 3 3 3 3 3 3 3 3 3 3 3 3 3 3 3 3 3 3 3 >.>.",
">.>.3 :.:.:.:.:.:.:.:.:.:.:.:.:.:.:.:.:.:.3 >.>.",
">.>.3 :.. . . . h h h h h h v h . . . . :.3 >.>.",
">.>.3 :.. . . h h x h h h b b b b @ . . :.3 >.>.",
">.>.3 :.. . % : x x v v b v Z Z - % @ . :.3 >.>.",
">.>.3 :.. b : 5 q b b b Z b Z 7 < : L . :.3 >.>.",
">.>.3 :.m x b 0 r u b Z Z b a t 0 G Y G :.3 >.>.",
">.>.3 :.Z Z Z b u Z Z S L S L a Y Y Y Y :.3 >.>.",
">.>.3 :.Z Z G G Z Z L L L L L L J Y ^ ^ :.3 >.>.",
">.>.3 :.Z G G G G L L L L L ^ ' ^ ^ ^ ^ :.3 >.>.",
">.>.3 :.G Y G Y Y Y Y ^ L ^ ^ ^ ^ ^ ^ ^ :.3 >.>.",
">.>.3 :.G Y ^ Y p Y ^ ^ ' ' ^ f O.' O.` :.3 >.>.",
">.>.3 :.^ Y ^ 6 r d ^ { ^ ^ f s w ' O.O.:.3 >.>.",
">.>.3 :.. { * , 5 { | ^ O.O.O.9 < * O.. :.3 >.>.",
">.>.3 :.. . # % ^ O.' ' O.O.O.&.% . . . :.3 >.>.",
">.>.3 :.. . . *.O.O.O.O.@.@.O.&.:.. . . :.3 >.>.",
">.>.3 :.. . . . O.*.&.O.@.=.:.O.. . . . :.3 >.>.",
">.>.3 :.:.:.:.:.:.:.:.:.:.:.:.:.:.:.:.:.:.3 >.>.",
">.>.2 3 3 3 3 3 3 3 3 3 3 3 3 3 3 3 3 3 3   >.>.",
">.>.>.>.>.>.>.>.>.>.>.>.>.>.>.>.>.>.>.>.>.>.>.>.",
">.>.>.>.>.>.>.>.>.>.>.>.>.>.>.>.>.>.>.>.>.>.>.>.",
">.>.>.>.>.>.>.>.>.>.>.>.>.>.>.>.>.>.>.>.>.>.>.>."
};
