/* XPM */
static const char * const camera_photo[] = {
/* columns rows colors chars-per-pixel */
"24 24 216 2",
"   c #000000",
".  c #010101",
"X  c #020202",
"o  c #030303",
"O  c #040404",
"+  c #040505",
"@  c #050505",
"#  c #060606",
"$  c #070707",
"%  c #090908",
"&  c #080809",
"*  c #080909",
"=  c #090909",
"-  c #090B0B",
";  c #0A0A0A",
":  c #0A0B0B",
">  c #0B0B0B",
",  c #0D0E0E",
"<  c #0E0E0E",
"1  c #0E0F0F",
"2  c #0F0F0F",
"3  c #10100F",
"4  c #0F1010",
"5  c #121212",
"6  c #121415",
"7  c #131516",
"8  c #141515",
"9  c #151718",
"0  c #191A1A",
"q  c #1A1A1A",
"w  c #20211F",
"e  c #1C1F20",
"r  c #1D1F20",
"t  c #1C2021",
"y  c #202020",
"u  c #212221",
"i  c #222222",
"p  c #212426",
"a  c #272726",
"s  c #272727",
"d  c #282927",
"f  c #282828",
"g  c #292929",
"h  c #2A2B29",
"j  c #2B2C29",
"k  c #2B2C2B",
"l  c #2C2D2A",
"z  c #282C2E",
"x  c #2E2F2D",
"c  c #30312F",
"v  c #2B2F30",
"b  c #2E3030",
"n  c #2E3334",
"m  c #2E3436",
"M  c #2F3537",
"N  c #303131",
"B  c #343532",
"V  c #323536",
"C  c #373835",
"Z  c #393A37",
"A  c #323839",
"S  c #32383A",
"D  c #353939",
"F  c #363938",
"G  c #363A3B",
"H  c #383838",
"J  c #383A38",
"K  c #393A39",
"L  c #393B3B",
"P  c #3A3A3A",
"I  c #383D3F",
"U  c #393E3F",
"Y  c #3A3E3F",
"T  c #3C3C3C",
"R  c #3E403E",
"E  c #42433F",
"W  c #3F4241",
"Q  c #414141",
"!  c #434646",
"~  c #454644",
"^  c #464745",
"/  c #474946",
"(  c #484848",
")  c #484A49",
"_  c #4A4A49",
"`  c #4A4B4B",
"'  c #4A4C49",
"]  c #4C4C4B",
"[  c #4C4D4B",
"{  c #4D4E4A",
"}  c #494C4C",
"|  c #494C4D",
" . c #4D4E4D",
".. c #4A4F50",
"X. c #4C4F50",
"o. c #4C4F51",
"O. c #4F5153",
"+. c #4E5254",
"@. c #4F5354",
"#. c #515350",
"$. c #525351",
"%. c #525252",
"&. c #535551",
"*. c #545552",
"=. c #555753",
"-. c #535555",
";. c #535755",
":. c #515556",
">. c #555754",
",. c #555856",
"<. c #565856",
"1. c #575856",
"2. c #525658",
"3. c #50575C",
"4. c #545859",
"5. c #555859",
"6. c #575A58",
"7. c #56595A",
"8. c #575C5E",
"9. c #5B5D58",
"0. c #5C5D59",
"q. c #5D5E5B",
"w. c #5C5E5F",
"e. c #5B605F",
"r. c #60605F",
"t. c #60625F",
"y. c #5B6062",
"u. c #5E6364",
"i. c #5E6365",
"p. c #606060",
"a. c #606160",
"s. c #616160",
"d. c #606162",
"f. c #616562",
"g. c #666665",
"h. c #676964",
"j. c #676865",
"k. c #676867",
"l. c #696967",
"z. c #666C6F",
"x. c #686868",
"c. c #686968",
"v. c #6A6A69",
"b. c #6B6D69",
"n. c #6B6C6B",
"m. c #6C6C6B",
"M. c #6C6D6B",
"N. c #6C6E6B",
"B. c #6D6F6B",
"V. c #6E6F6C",
"C. c #6E706C",
"Z. c #6F706D",
"A. c #6E7375",
"S. c #727370",
"D. c #737571",
"F. c #747773",
"G. c #747574",
"H. c #767874",
"J. c #777877",
"K. c #787975",
"L. c #787976",
"P. c #7A7B78",
"I. c #7A7A7A",
"U. c #7C7D7A",
"Y. c #7D7F7B",
"T. c #7D7D7D",
"R. c #7D7E7C",
"E. c #7F7F7E",
"W. c #7D807B",
"Q. c #7F827D",
"!. c #7F827E",
"~. c #80817F",
"^. c #81827F",
"/. c #757E82",
"(. c #7E8487",
"). c #798488",
"_. c #808180",
"`. c #848582",
"'. c #848684",
"]. c #868785",
"[. c #888A85",
"{. c #8B8B8B",
"}. c #8D8F8B",
"|. c #8C8C8C",
" X c #8D8D8D",
".X c #8F918D",
"XX c #90918E",
"oX c #90928F",
"OX c #90938F",
"+X c #91938F",
"@X c #838D90",
"#X c #919591",
"$X c #949793",
"%X c #949594",
"&X c #969796",
"*X c #969A96",
"=X c #9A9A9A",
"-X c #9FA09E",
";X c #A1A29E",
":X c #A6A6A6",
">X c #AAAAA9",
",X c #AAABA9",
"<X c #AFB1AF",
"1X c #B2B3B0",
"2X c #B3B3B2",
"3X c #B3B3B3",
"4X c #B7B8B6",
"5X c #BABBB8",
"6X c #BBBCBA",
"7X c #BDBEBB",
"8X c #C2C3C0",
"9X c #C3C3C3",
"0X c #C4C4C4",
"qX c #C7C8C7",
"wX c #FFFFFF",
"eX c None",
/* pixels */
"eXeXeXeXeXeXeXeXeXeXeXeXeXeXeXeXeXeXeXeXeXeXeXeX",
"eXeXeXeXeXeXeXeXeXeXeXeXeXeXeXeXeXeXeXeXeXeXeXeX",
"eXeXeXeXeXeXeXeXeXeXeXeXy g g g 0 eXeXeXeXeXeXeX",
"eXeXeXeXeXeXeXeXeXeXeXo qXwXwXwX1Xo eXeXeXeXeXeX",
"eXeXeXeXeXeXeXeXeXeXeX# ].,X,X,Xg.o eXeXeXeXeXeX",
"eXeXeXeXeXeXeXeXeXeXeX= x eXeXeXc # eXeXeXeXeXeX",
"eXeXeXeXeXeXeXeXeXo k [ ~ g.l.M.%.= o o eXeXeXeX",
"eXeXeXeXeXo o _ {.:X4X!.E *.0.h.9.].F.%X .eXeXeX",
"eXeXo 3 h.;X6X8X5X!.I.F.#X#X$X*X*XW.H..X*Xo eXeX",
"eXo <X6X1X=.#.D.0.0X9Xb.[ <.e.f.h.W.*./ T.= eXeX",
"eX# L.;X[.H.+X/ k r.v.<.).@X(.z.3.;.' B F.= eXeX",
"eXo Z.+XT.}.e.d g Z >./.A.7.+.%.O.i.F y m.= eXeX",
"eXo Z..X=.=./ w g Z i.+.7.z 7 p ` I 2.s V.= eXeX",
"eXo V.XX=.=./ w k F 7.S 7 , o o 7 V A b d.= eXeX",
"eXo V.`.=.=./ w k R S t 0 wXg.r 5 v V Y e.% eXeX",
"eXo C.I.=.=./ w k _ m 0 q v.=XT.s L m F r.% eXeX",
"eXo M.S.=.=./ w k R m t o Z |.{.Q ` m G >.# eXeX",
"eXo ^.M.=.=./  .%.g.y.z , y s _ 3X-.8.! T 4 eXeX",
"eXeX# T.U.U.l.J o o $ m V y g J d.I - o o eXeXeX",
"eXeXeXo o o o eXeXeXeX= w.X.` X.-.1 r eXeXeXeXeX",
"eXeXeXeXeXeXeXeXeXeXeXeX# = 4 , = eXeXeXeXeXeXeX",
"eXeXeXeXeXeXeXeXeXeXeXeXeXeXeXeXeXeXeXeXeXeXeXeX",
"eXeXeXeXeXeXeXeXeXeXeXeXeXeXeXeXeXeXeXeXeXeXeXeX",
"eXeXeXeXeXeXeXeXeXeXeXeXeXeXeXeXeXeXeXeXeXeXeXeX"
};
