/* XPM */
static const char * const emblem_unreadable[] = {
/* columns rows colors chars-per-pixel */
"16 16 130 2",
"   c #D80E0E",
".  c #D90F0F",
"X  c #D61111",
"o  c #D61212",
"O  c #D71212",
"+  c #D71313",
"@  c #D91010",
"#  c #DA1111",
"$  c #DC1212",
"%  c #DC1313",
"&  c #DD1313",
"*  c #D81414",
"=  c #D91515",
"-  c #D91616",
";  c #DB1717",
":  c #DE1515",
">  c #DD1717",
",  c #DF1616",
"<  c #E01818",
"1  c #E11919",
"2  c #E21A1A",
"3  c #E31A1A",
"4  c #E31B1B",
"5  c #E41C1C",
"6  c #E51D1D",
"7  c #E61E1E",
"8  c #E61F1F",
"9  c #E71F1F",
"0  c #DF2929",
"q  c #DF3130",
"w  c #DE3838",
"e  c #E22020",
"r  c #E72020",
"t  c #E92222",
"y  c #EA2323",
"u  c #EC2525",
"i  c #EC2626",
"p  c #ED2727",
"a  c #E12B2B",
"s  c #E32D2D",
"d  c #E42D2C",
"f  c #E42E2E",
"g  c #EE2828",
"h  c #EE2B2B",
"j  c #E63131",
"k  c #E83333",
"l  c #EE3030",
"z  c #EB3636",
"x  c #ED3434",
"c  c #EC3534",
"v  c #ED3838",
"b  c #EE3939",
"n  c #ED3D3D",
"m  c #EE3E3E",
"M  c #EA403F",
"N  c #E04444",
"B  c #E44949",
"V  c #E34F4E",
"C  c #E84F4F",
"Z  c #E65251",
"A  c #E15454",
"S  c #EC5252",
"D  c #EE5756",
"F  c #EC5958",
"G  c #EB5C5C",
"H  c #EB5D5D",
"J  c #EC5D5D",
"K  c #ED5F5F",
"L  c #E36665",
"P  c #E46E6E",
"I  c #EA6A69",
"U  c #E57C7B",
"Y  c #E5807F",
"T  c #9D9D9D",
"R  c #9E9E9E",
"E  c #9F9F9F",
"W  c #A0A0A0",
"Q  c #A3A3A3",
"!  c #A4A4A4",
"~  c #A6A6A6",
"^  c #B0B0B0",
"/  c #B9B9B9",
"(  c #EA8584",
")  c #E68A89",
"_  c #E78F8E",
"`  c #E88D8D",
"'  c #ED8F8E",
"]  c #E79D9D",
"[  c #CACACA",
"{  c #CBCBCB",
"}  c #D0D0D0",
"|  c #D2D2D2",
" . c #D4D4D4",
".. c #D5D5D5",
"X. c #DEDEDE",
"o. c #DFDFDF",
"O. c #ECC8C6",
"+. c #EDCAC8",
"@. c #EDD2D0",
"#. c #EDD3D1",
"$. c #E0E0E0",
"%. c #E1E1E1",
"&. c #E3E3E3",
"*. c #E4E4E4",
"=. c #E5E5E5",
"-. c #E6E6E6",
";. c #E7E7E7",
":. c #EDE2E0",
">. c #EEE4E2",
",. c #EEE5E3",
"<. c #EEE6E4",
"1. c #EEE7E4",
"2. c #EDE8E6",
"3. c #E8E8E8",
"4. c #E9E9E9",
"5. c #EAEAEA",
"6. c #EEEBE9",
"7. c #ECECEC",
"8. c #EDEDED",
"9. c #EEEEEC",
"0. c #EFEFEF",
"q. c #F0F0F0",
"w. c #F1F1F1",
"e. c #F2F2F2",
"r. c #F5F5F5",
"t. c #F7F7F7",
"y. c #F9F9F9",
"u. c #FBFBFB",
"i. c #FCFCFC",
"p. c None",
/* pixels */
"p.p.W W W W W W W W W W W W p.p.",
"p.~ {  ...................} ^ W ",
"E | ] H J J J J J J J J H _ #.W ",
"E X.n g g g g g g g g g g f =.! ",
"E X.v g g D m g p x K l g g *.~ ",
"E $.v i S 9.1.D k +.9.' i i 3.Q ",
"T *.z t N >.9.,.#.9.9.I t y 5.Q ",
"T $.k t 9 C >.9.9.9.( 6 r r 7.Q ",
"E *.j 6 4 s @.9.9.6.Z 4 6 6 9.Q ",
"E 3.f 1 e O.9.9.2.9.<.B 1 1 0.~ ",
"E *.s 1 V 9.8.U N :.9._ < > 0.Q ",
"E 5.a : ; Y L $ $ w ) q & : w.~ ",
"T 5.0 $ $ $           # # & q.! ",
"E $.P = = = X X X X X = = A q.W ",
"E / 5.w.e.r.y.y.i.u.r.r.r.q.{ E ",
"p.E E E E E E E E E E E E E W p."
};
