/* XPM */
static const char * const go_down[] = {
/* columns rows colors chars-per-pixel */
"24 24 122 2",
"   c #366D03",
".  c #396E03",
"X  c #397103",
"o  c #3C7603",
"O  c #397005",
"+  c #3A7304",
"@  c #3A7504",
"#  c #3B7504",
"$  c #3A7604",
"%  c #3C7604",
"&  c #3C7704",
"*  c #3C7705",
"=  c #3F7709",
"-  c #3F7A09",
";  c #447B0F",
":  c #457E0F",
">  c #4E9A06",
",  c #4C8216",
"<  c #4F831D",
"1  c #4F8918",
"2  c #569E11",
"3  c #53A108",
"4  c #54A209",
"5  c #57A80A",
"6  c #58A90A",
"7  c #58AA0A",
"8  c #5CAF0C",
"9  c #5DAD0F",
"0  c #5DB10C",
"q  c #5EB20C",
"w  c #5EB30D",
"e  c #5FAA17",
"r  c #5BA118",
"t  c #5CA21A",
"y  c #61B70E",
"u  c #62B90E",
"i  c #63B90F",
"p  c #63BA0F",
"a  c #60AD18",
"s  c #60B112",
"d  c #60B113",
"f  c #65BD10",
"g  c #578E23",
"h  c #588A29",
"j  c #5B8E28",
"k  c #5A9524",
"l  c #649537",
"z  c #699D39",
"x  c #62A523",
"c  c #63A624",
"v  c #64A625",
"b  c #65AA22",
"n  c #67A82A",
"m  c #69A92C",
"M  c #69A92D",
"N  c #6AAA2E",
"B  c #6DAC32",
"V  c #6FAD34",
"C  c #70AD36",
"Z  c #6FB031",
"A  c #72B433",
"S  c #74B734",
"D  c #74B23A",
"F  c #74B03C",
"G  c #76B03E",
"H  c #79B63F",
"J  c #67C111",
"K  c #68C211",
"L  c #69C311",
"P  c #6CC813",
"I  c #74A049",
"U  c #7BAF4A",
"Y  c #77B140",
"T  c #79B241",
"R  c #7BB345",
"E  c #7CB447",
"W  c #7DB646",
"Q  c #7DB549",
"!  c #7EB54A",
"~  c #83CE39",
"^  c #86D33B",
"/  c #80BA47",
"(  c #83AF59",
")  c #86BA56",
"_  c #8ABA5E",
"`  c #89CC48",
"'  c #8FD64A",
"]  c #8EC955",
"[  c #8BC159",
"{  c #94D357",
"}  c #95C666",
"|  c #9CCC6C",
" . c #99D064",
".. c #9DD069",
"X. c #9EC677",
"o. c #9CC972",
"O. c #A3CA7E",
"+. c #A3CB7E",
"@. c #A4CB7F",
"#. c #A4CC7E",
"$. c #A5CD7E",
"%. c #A1D172",
"&. c #A7D877",
"*. c #A9DD75",
"=. c #AADD78",
"-. c #A4CB80",
";. c #AACE88",
":. c #A9D381",
">. c #AED08D",
",. c #B1D292",
"<. c #B1D490",
"1. c #B4D496",
"2. c #B6D59A",
"3. c #B8D69C",
"4. c #BBD8A0",
"5. c #BDD9A2",
"6. c #BDD8A3",
"7. c #BEDAA4",
"8. c #BFDAA5",
"9. c #BFDAA6",
"0. c #C1DBA8",
"q. c None",
/* pixels */
"q.q.q.q.q.q.q.q.q.q.q.q.q.q.q.q.q.q.q.q.q.q.q.q.",
"q.q.q.q.q.q.q.q.q.q.q.q.q.q.q.q.q.q.q.q.q.q.q.q.",
"q.q.q.q.q.q.q.q.q.q.q.q.q.q.q.q.q.q.q.q.q.q.q.q.",
"q.q.q.q.q.q.q.@ + + + + + + + + @ q.q.q.q.q.q.q.",
"q.q.q.q.q.q.q.+ 9.4.3.1.,.>.;.-.+ q.q.q.q.q.q.q.",
"q.q.q.q.q.q.q.+ 9.! Y C N c t @.+ q.q.q.q.q.q.q.",
"q.q.q.q.q.q.q.+ 9.! Y C N v t @.+ q.q.q.q.q.q.q.",
"q.q.q.q.q.q.q.+ 9.! Y V N c r O.+ q.q.q.q.q.q.q.",
"q.q.q.q.q.q.q.+ 5.E F V m x 2 O.+ q.q.q.q.q.q.q.",
"q.q.q.@ + + @ & 5.R F B n t > O.% + + + @ q.q.q.",
"q.q.q.q.h 5.0.9.4.T D A b 4 3 #.@.O.X.< q.q.q.q.",
"q.q.q.q.q.l 2.) E H A a 6 6 6 5 a o.j q.q.q.q.q.",
"q.q.q.q.q.o I <./ S 9 8 0 0 0 s | z @ q.q.q.q.q.",
"q.q.q.q.q.q.@ ( :.s w u u p p  .E % q.q.q.q.q.q.",
"q.q.q.q.q.q.q.@ _ ] u p K K { [ % q.q.q.q.q.q.q.",
"q.q.q.q.q.q.q.q.; } ` K P '  .; q.q.q.q.q.q.q.q.",
"q.q.q.q.q.q.q.q.q.; %.~ ^ *.: q.q.q.q.q.q.q.q.q.",
"q.q.q.q.q.q.q.q.q.q., &.=.1 q.q.q.q.q.q.q.q.q.q.",
"q.q.q.q.q.q.q.q.q.q.. g k + q.q.q.q.q.q.q.q.q.q.",
"q.q.q.q.q.q.q.q.q.q.q.  + q.q.q.q.q.q.q.q.q.q.q.",
"q.q.q.q.q.q.q.q.q.q.q.q.q.q.q.q.q.q.q.q.q.q.q.q.",
"q.q.q.q.q.q.q.q.q.q.q.q.q.q.q.q.q.q.q.q.q.q.q.q.",
"q.q.q.q.q.q.q.q.q.q.q.q.q.q.q.q.q.q.q.q.q.q.q.q.",
"q.q.q.q.q.q.q.q.q.q.q.q.q.q.q.q.q.q.q.q.q.q.q.q."
};
