/* XPM */
static const char * const go_down16[] = {
/* columns rows colors chars-per-pixel */
"16 16 93 2",
"   c #3A7304",
".  c #3A7404",
"X  c #3B7404",
"o  c #3B7504",
"O  c #3B7604",
"+  c #3C7604",
"@  c #3F780A",
"#  c #40780D",
"$  c #427A0E",
"%  c #427B0E",
"&  c #4E9A06",
"*  c #4B8218",
"=  c #52891E",
"-  c #53A208",
";  c #59AA0A",
":  c #59AB0B",
">  c #58A90C",
",  c #5AAB0C",
"<  c #5EB30D",
"1  c #5FB40D",
"2  c #62B90F",
"3  c #65BC0F",
"4  c #63AA1F",
"5  c #65BD10",
"6  c #69B61E",
"7  c #568B24",
"8  c #568927",
"9  c #578C26",
"0  c #659A34",
"q  c #6FAD34",
"w  c #71AE37",
"e  c #72A83F",
"r  c #67C011",
"t  c #69C412",
"y  c #6AC512",
"u  c #6ECB14",
"i  c #73C91F",
"p  c #79C331",
"a  c #7BC532",
"s  c #7DC23B",
"d  c #7AA54F",
"f  c #7AAA4C",
"g  c #78B241",
"h  c #7CB447",
"j  c #7EBC42",
"k  c #82BA4D",
"l  c #84B755",
"z  c #82B850",
"x  c #85B954",
"c  c #86BA55",
"v  c #88BD56",
"b  c #89BC59",
"n  c #8CBD5D",
"m  c #8DBE5D",
"M  c #8DBF5D",
"N  c #8DBE5F",
"B  c #99BF75",
"V  c #87C34D",
"C  c #89C54E",
"Z  c #8DD14C",
"A  c #90D54E",
"S  c #87C051",
"D  c #89C252",
"F  c #8AC058",
"G  c #92C55F",
"H  c #98CC65",
"J  c #97C768",
"K  c #9FCE71",
"L  c #9FC778",
"P  c #A0D66D",
"I  c #A3CA7E",
"U  c #A4CC7E",
"Y  c #A4CD7E",
"T  c #A5CE7F",
"R  c #A2D174",
"E  c #A3D375",
"W  c #A8DB78",
"Q  c #A5E06C",
"!  c #A9D183",
"~  c #B1D390",
"^  c #B1D291",
"/  c #B7DB94",
"(  c #B8D69B",
")  c #BFDAA6",
"_  c #C2DBAA",
"`  c #C2DCAA",
"'  c #C3DCAB",
"]  c #C5DDAD",
"[  c #C6DEAF",
"{  c #C7DEB0",
"}  c #C7DFB1",
"|  c #C8DFB1",
" . c None",
/* pixels */
" . . . .o             o  . . . .",
" . . . .  { _ ) ^ I I    . . . .",
" . . . .  | N c w & I    . . . .",
" . . . .  { N c g & I    . . . .",
" . . . .  { n l h & I    . . . .",
"o       o [ b z q & I o       o ",
" .8 _ [ [ ` v k 4 - ! I U L *  .",
" .o d ( n F V j : ; ; > J 0 o  .",
" . .o B ! F V 6 1 1 1 C l o  . .",
" . . .# ~ H s 5 3 3 a K @  . . .",
" . . . .7 / p 5 y i W =  . . . .",
" . . . .+ f P t u Q e o  . . . .",
" . . . . .o F Z A G +  . . . . .",
" . . . . . .% E E %  . . . . . .",
" . . . . . . .7 7  . . . . . . .",
" . . . . . . .+ +  . . . . . . ."
};
