/* XPM */
static char *help_browser[] = {
/* columns rows colors chars-per-pixel */
"24 24 232 2",
"   c #0F2341",
".  c #132C51",
"X  c #15325A",
"o  c #193866",
"O  c #1E4173",
"+  c #20457A",
"@  c #214982",
"#  c #224982",
"$  c #204985",
"%  c #214A86",
"&  c #204A87",
"*  c #214B87",
"=  c #214B88",
"-  c #224B88",
";  c #224C88",
":  c #234D89",
">  c #29518B",
",  c #29518C",
"<  c #29528C",
"1  c #2C538D",
"2  c #2C558E",
"3  c #2E568F",
"4  c #2D5690",
"5  c #2F5791",
"6  c #335B94",
"7  c #355C94",
"8  c #345C95",
"9  c #345D95",
"0  c #375E95",
"q  c #365E96",
"w  c #386097",
"e  c #386098",
"r  c #396199",
"t  c #3A6299",
"y  c #3B639A",
"u  c #3C649A",
"i  c #40679D",
"p  c #41699E",
"a  c #42699F",
"s  c #446B9F",
"d  c #466B9F",
"f  c #4A6C9E",
"g  c #4C6E9E",
"h  c #4C6E9F",
"j  c #446BA0",
"k  c #456CA1",
"l  c #486FA3",
"z  c #496FA3",
"x  c #4D6EA0",
"c  c #4E71A1",
"v  c #4E71A2",
"b  c #4B71A5",
"n  c #4B72A5",
"m  c #4C71A4",
"M  c #4C72A5",
"N  c #4D74A7",
"B  c #4E74A7",
"V  c #5071A0",
"C  c #5072A3",
"Z  c #5273A2",
"A  c #5074A4",
"S  c #5575A4",
"D  c #5576A5",
"F  c #5978A5",
"G  c #5878A6",
"H  c #5879A6",
"J  c #5076A8",
"K  c #5177A9",
"L  c #5278AA",
"P  c #547AAC",
"I  c #557BAC",
"U  c #577CAD",
"Y  c #577DAE",
"T  c #587CAB",
"R  c #5C7CA8",
"E  c #587DAE",
"W  c #5A7FAF",
"Q  c #5A7FB0",
"!  c #5A80B0",
"~  c #5D82B2",
"^  c #5E83B2",
"/  c #5E83B3",
"(  c #5F83B3",
")  c #6281AD",
"_  c #6285B3",
"`  c #6185B4",
"'  c #6186B4",
"]  c #6286B5",
"[  c #6287B5",
"{  c #6387B6",
"}  c #6688B3",
"|  c #6388B6",
" . c #6488B6",
".. c #6489B7",
"X. c #6C88B0",
"o. c #678BB9",
"O. c #688CB9",
"+. c #6B8DB8",
"@. c #6A8EBB",
"#. c #6B8EBB",
"$. c #6B8FBB",
"%. c #6B8FBC",
"&. c #7691B6",
"*. c #7893B7",
"=. c #7093BF",
"-. c #7796BE",
";. c #7C96BB",
":. c #7D96BB",
">. c #7B97BD",
",. c #7295C0",
"<. c #7396C1",
"1. c #7397C1",
"2. c #7799C3",
"3. c #7C9AC2",
"4. c #789BC5",
"5. c #799CC5",
"6. c #7C9DC5",
"7. c #7E9DC4",
"8. c #7C9FC8",
"9. c #7D9FC8",
"0. c #7DA0C8",
"q. c #7EA1C9",
"w. c #7FA1C9",
"e. c #829CBF",
"r. c #879DBE",
"t. c #879EBE",
"y. c #809BC0",
"u. c #83A2C7",
"i. c #8CA2C1",
"p. c #81A2C9",
"a. c #80A2CA",
"s. c #80A3CA",
"d. c #83A4CA",
"f. c #83A4CB",
"g. c #85A7CE",
"h. c #86A7CE",
"j. c #86A8CE",
"k. c #86A8CF",
"l. c #89AACF",
"z. c #90A7C5",
"x. c #92A9C7",
"c. c #94A8C5",
"v. c #97ACC9",
"b. c #96ADCB",
"n. c #99B1CF",
"m. c #9CB0CC",
"M. c #9DB1CC",
"N. c #88A9D0",
"B. c #88AAD0",
"V. c #89AAD0",
"C. c #8DAFD4",
"Z. c #8EAFD4",
"A. c #91B2D6",
"S. c #92B3D7",
"D. c #9FB6D3",
"F. c #98B5D6",
"G. c #9EB9D8",
"H. c #9FBBDA",
"J. c #9BBBDD",
"K. c #9FBCDC",
"L. c #A0B2CC",
"P. c #A1B3CD",
"I. c #A3B4CD",
"U. c #A4B5CE",
"Y. c #A6B8D0",
"T. c #A6B8D1",
"R. c #A3BAD7",
"E. c #A6BAD4",
"W. c #A4BBD7",
"Q. c #A8B9D0",
"!. c #A9B9D1",
"~. c #A8BAD2",
"^. c #A9BAD2",
"/. c #A9BCD4",
"(. c #AFBFD5",
"). c #AFC0D6",
"_. c #B3C1D6",
"`. c #B4C2D7",
"'. c #B2C2D8",
"]. c #B2C5DB",
"[. c #B5C4D8",
"{. c #B4C4D9",
"}. c #B5C4D9",
"|. c #B5C5DA",
" X c #B5C5DB",
".X c #B6C6DB",
"XX c #B7C7DC",
"oX c #B8C7DB",
"OX c #BAC7DA",
"+X c #BAC8DB",
"@X c #BDCBDD",
"#X c #BECBDD",
"$X c #C1CEDF",
"%X c #C1D0E2",
"&X c #C2D1E3",
"*X c #C1D1E4",
"=X c #C8D3E3",
"-X c #C9D4E4",
";X c #C8D6E7",
":X c #C9D7E7",
">X c #CBD7E7",
",X c #CED9E8",
"<X c #D3DEEB",
"1X c #DAE2EC",
"2X c #DFE5EE",
"3X c #E0E6EE",
"4X c #E0E6EF",
"5X c #E1E8F1",
"6X c #E1E9F1",
"7X c #E3E8F0",
"8X c #E0E8F2",
"9X c #E5EAF1",
"0X c #E6EBF1",
"qX c #E6EBF2",
"wX c #E7ECF2",
"eX c #E7ECF3",
"rX c #E7EDF5",
"tX c #E8EDF3",
"yX c #E9EDF3",
"uX c #E9EEF4",
"iX c #E9EEF5",
"pX c #E9EFF5",
"aX c #EAEFF5",
"sX c #E9EFF6",
"dX c #ECF0F5",
"fX c #EDF1F6",
"gX c #EEF2F7",
"hX c #F0F3F7",
"jX c #F3F5F8",
"kX c #F8F9FB",
"lX c #FFFFFF",
"zX c None",
/* pixels */
"zXzXzXzXzXzXzXzXzXzXzXzXzXzXzXzXzXzXzXzXzXzXzXzX",
"zXzXzXzXzXzXzXzXzXzXzXzXzXzXzXzXzXzXzXzXzXzXzXzX",
"zXzXzXzXzXzXzXzX& & & & & & & & zXzXzXzXzXzXzXzX",
"zXzXzXzXzXzX& & h r._.3X3X`.r.h & zXzXzXzXzXzXzX",
"zXzXzXzXzX& < L.0XL.*.c C :.Q.uXL.< = zXzXzXzXzX",
"zXzXzXzX& f 3XQ.7 6 8 8 w r r k {.3Xx & zXzXzXzX",
"zXzXzX& < 3XX.4 ) [.7XkXjX1Xx.d p e.3X< zXzXzXzX",
"zXzXzX& I.Q.4 8 Q.lXlXlXlXlXlX/.n z +XT.& zXzXzX",
"zXzX& C 0X0 8 y Q.+X>.} E.lXlXaXP J I fXZ zXzXzX",
"zXzX& i.L.8 r p n J I Q +.lXlXhX~ Q I {.z.= zXzX",
"zXzX& OX&.0 p z J I /  .,XlXlX&Xo.] ~ b.#X; zXzX",
"zXzX= uXc u k B I ~ o.:XlXlX5X2.,.%.{ -.0X= zXzX",
"zXzX& tXM i z J ! | ].lXlX5Xf.8.4.1.+.3.uX; zXzX",
"zXzX& #X>.j M I ~ o.5XlXlXG.N.g.s.4.,.D.$X; zXzX",
"zXzX& x.T.j B I ] +.2.s.V.C.A.C.g.9.1.&Xv.& zXzX",
"zXzX& F 0XM B Q ] %.<XrXuXK.J.S.V.0.6.fXS zXzXzX",
"zXzXzX& (.(.B I ] +.rXlXlXG.A.Z.k.0.;X'.; zXzXzX",
"zXzXzXzX3 tXy.I / +.uXlXlXF.V.N.w.E.uX3 zXzXzXzX",
"zXzXzXzX= F uX X] ] #.<.5.0.0.f.:XdXD zXzXzXzXzX",
"zXzXzXzXzX= 4 {.uXOXn.7.s.E.*XgX X4 zXzXzXzXzXzX",
"zXzXzXzXzXzXzX& R M.=XfXaX:XM.F # zXzXzXzXzXzXzX",
"zXzXzXzXzXzXzXzX. o + & # O X   zXzXzXzXzXzXzXzX",
"zXzXzXzXzXzXzXzXzXzXzXzXzXzXzXzXzXzXzXzXzXzXzXzX",
"zXzXzXzXzXzXzXzXzXzXzXzXzXzXzXzXzXzXzXzXzXzXzXzX"
};
