/* XPM */
static const char * const input_keyboard16[] = {
/* columns rows colors chars-per-pixel */
"16 16 62 1",
"  c #8C8E89",
". c #8D8E8A",
"X c #8C8F8A",
"o c #8D8F8A",
"O c #8E8F8A",
"+ c #8E908B",
"@ c #8F918C",
"# c #949490",
"$ c #989895",
"% c #9D9F9A",
"& c #9FA09C",
"* c #9FA19C",
"= c #9FA19D",
"- c #A0A09C",
"; c #A0A09D",
": c #A1A39E",
"> c #A9ACA5",
", c #ABAEA7",
"< c #ADB1A9",
"1 c #AFB0AB",
"2 c #AFB2AB",
"3 c #B1B5AD",
"4 c #B4B7B0",
"5 c #B6B9B1",
"6 c #B7BAB3",
"7 c #B8BBB4",
"8 c #B9BCB5",
"9 c #BABDB7",
"0 c #BBBFB7",
"q c #BCBFBB",
"w c #C3C6C0",
"e c #C3C5C2",
"r c #C4C6C1",
"t c #CACBC8",
"y c #D0D1CE",
"u c #D0D2CE",
"i c #D0D2CF",
"p c #D1D3D0",
"a c #D5D6D3",
"s c #DADBD8",
"d c #DCDEDB",
"f c #DDDEDB",
"g c #DDDEDC",
"h c #DDDFDC",
"j c #DEE0DD",
"k c #DFE0DD",
"l c #E0E0DE",
"z c #E0E1DE",
"x c #E1E3E0",
"c c #E2E3E0",
"v c #E5E7E4",
"b c #E6E7E4",
"n c #E7E9E4",
"m c #E8E9E6",
"M c #ECEEEA",
"N c #EFF0EE",
"B c #F0F2EE",
"V c #F5F6F3",
"C c #F8F9F7",
"Z c #FAFAF9",
"A c #FAFBFA",
"S c None",
/* pixels */
"SSSSSSSSSSSSSSSS",
"SSSSSSSSSSSSSSSS",
"SSSSSSSSSSSSSSSS",
"SSSSSSSSS--&&&SS",
"SSSSSS#$&SSSS&SS",
"SSSSSSSSSSSS&&SS",
"SSSSSSSSSSS&-SSS",
"SSSSSSSSSS&SSSSS",
"S-,,<134585780SS",
"S8nMBVCZZCNbn1SS",
"+theiiipeckrxqSS",
"+shkdddhkfhbkaOS",
"+++++++++++++OOS",
"SSSSSSSSSSSSSSSS",
"SSSSSSSSSSSSSSSS",
"SSSSSSSSSSSSSSSS"
};
