/* XPM */
static const char * const utilities_terminal32[] = {
"32 32 343 2",
"  	c None",
". 	c #EBCE65",
"+ 	c #E1C63C",
"@ 	c #E2C335",
"# 	c #E4C336",
"$ 	c #E3C332",
"% 	c #E2C234",
"& 	c #E1C22F",
"* 	c #E1C12F",
"= 	c #E1C02F",
"- 	c #E6C438",
"; 	c #E1CC49",
"> 	c #F3EAB6",
", 	c #EBD56E",
"' 	c #EBD162",
") 	c #EAD060",
"! 	c #E9CF5C",
"~ 	c #EACD55",
"{ 	c #E9CB51",
"] 	c #E7CA4B",
"^ 	c #E6C843",
"/ 	c #E7C53B",
"( 	c #E5C43C",
"_ 	c #E9CF63",
": 	c #F4E9B7",
"< 	c #EAD267",
"[ 	c #E9CE58",
"} 	c #E9CE55",
"| 	c #E8CC52",
"1 	c #E7CB4D",
"2 	c #E6C949",
"3 	c #E6C943",
"4 	c #E6C73F",
"5 	c #E5C53A",
"6 	c #E2C538",
"7 	c #E7CF5D",
"8 	c #F5E7B3",
"9 	c #E9CE5D",
"0 	c #E8CC4E",
"a 	c #E7C947",
"b 	c #E5C845",
"c 	c #E6C741",
"d 	c #E6C740",
"e 	c #E5C641",
"f 	c #E3C640",
"g 	c #E0C548",
"h 	c #F3E7AF",
"i 	c #E8CC53",
"j 	c #E7C742",
"k 	c #E5C63D",
"l 	c #E5C73C",
"m 	c #EAC33D",
"n 	c #AAB170",
"o 	c #91B3B8",
"p 	c #85A6BC",
"q 	c #7FA7BB",
"r 	c #6DA2CB",
"s 	c #699BCC",
"t 	c #6399C8",
"u 	c #5F95C6",
"v 	c #5991C7",
"w 	c #538DC3",
"x 	c #4F8CC3",
"y 	c #E6CE5C",
"z 	c #F3E5A8",
"A 	c #E6C948",
"B 	c #E5C334",
"C 	c #E5C333",
"D 	c #E5C332",
"E 	c #E8C234",
"F 	c #E8C734",
"G 	c #A3B9BC",
"H 	c #B6CDE5",
"I 	c #7BABD1",
"J 	c #7CA4D0",
"K 	c #75A3D3",
"L 	c #6FA1CE",
"M 	c #699CCC",
"N 	c #6397C9",
"O 	c #5993C6",
"P 	c #4F8EC3",
"Q 	c #4786BF",
"R 	c #568CC3",
"S 	c #E0CE5E",
"T 	c #F3E3A1",
"U 	c #E5C33D",
"V 	c #E3BF28",
"W 	c #E2C026",
"X 	c #E2C028",
"Y 	c #DFC133",
"Z 	c #E3C33F",
"` 	c #A8BFBC",
" .	c #ADC8E4",
"..	c #77A5D0",
"+.	c #6FA0CE",
"@.	c #6B9ECC",
"#.	c #669ACB",
"$.	c #6096C8",
"%.	c #5891C6",
"&.	c #508CC2",
"*.	c #4586C1",
"=.	c #3B7EBC",
"-.	c #4583BE",
";.	c #A2D583",
">.	c #B4E48C",
",.	c #A8DF7D",
"'.	c #ABDF80",
").	c #ACE283",
"!.	c #B2E287",
"~.	c #DDD068",
"{.	c #F1E19C",
"].	c #E2C02D",
"^.	c #E0BD1B",
"/.	c #DFBB1E",
"(.	c #DDBB2A",
"_.	c #D9BD36",
":.	c #DBC042",
"<.	c #A6BDBC",
"[.	c #A7C5E2",
"}.	c #6D9FCC",
"|.	c #669BCA",
"1.	c #6197CA",
"2.	c #5B93C7",
"3.	c #548EC4",
"4.	c #4D89C1",
"5.	c #4484BE",
"6.	c #3D7FBB",
"7.	c #387BB9",
"8.	c #4683BD",
"9.	c #89BF6B",
"0.	c #DFF2CA",
"a.	c #B0DF87",
"b.	c #A0DA72",
"c.	c #A4DB74",
"d.	c #A5DB78",
"e.	c #A8E07B",
"f.	c #D8D15E",
"g.	c #F1DF95",
"h.	c #DFBC25",
"i.	c #DBB71C",
"j.	c #D6B720",
"k.	c #D1B829",
"l.	c #D2B839",
"m.	c #D6BD47",
"n.	c #A3BCBD",
"o.	c #A3C2E1",
"p.	c #639AC8",
"q.	c #5C93C6",
"r.	c #5590C5",
"s.	c #4F8BC2",
"t.	c #4987C1",
"u.	c #4281BE",
"v.	c #397DBB",
"w.	c #397ABA",
"x.	c #3577B6",
"y.	c #4481BC",
"z.	c #8AC26B",
"A.	c #DAF0C5",
"B.	c #AADE7F",
"C.	c #99D867",
"D.	c #9BD969",
"E.	c #9CDA6B",
"F.	c #A0D974",
"G.	c #D5CF5B",
"H.	c #EADB91",
"I.	c #D6B726",
"J.	c #D0B218",
"K.	c #CCB120",
"L.	c #CBB22A",
"M.	c #C9B639",
"N.	c #CEBC4C",
"O.	c #A0B9BD",
"P.	c #9BBEDC",
"Q.	c #5B93C6",
"R.	c #508DC4",
"S.	c #4B88C2",
"T.	c #4383BF",
"U.	c #3A7CB9",
"V.	c #387AB7",
"W.	c #3777B4",
"X.	c #3574B3",
"Y.	c #437FBA",
"Z.	c #88C068",
"`.	c #D7F0C3",
" +	c #A5DB75",
".+	c #91D55B",
"++	c #93D65D",
"@+	c #92D65E",
"#+	c #99D55F",
"$+	c #C8C43F",
"%+	c #E3D48F",
"&+	c #CCB221",
"*+	c #C7AD1A",
"=+	c #C3AC20",
"-+	c #C1AE2B",
";+	c #C2B13A",
">+	c #C7B74A",
",+	c #9EB8BC",
"'+	c #95BADA",
")+	c #4F8CC2",
"!+	c #4585BF",
"~+	c #3F80BD",
"{+	c #3B7DBA",
"]+	c #3778B9",
"^+	c #3677B5",
"/+	c #3574B2",
"(+	c #3471B0",
"_+	c #427EB9",
":+	c #86C167",
"<+	c #D7EFBF",
"[+	c #9EDA6D",
"}+	c #8AD250",
"|+	c #8AD24F",
"1+	c #89D24D",
"2+	c #8CD153",
"3+	c #A7C83E",
"4+	c #D0B826",
"5+	c #D3AF18",
"6+	c #CFAB12",
"7+	c #CAAF1D",
"8+	c #C8AF28",
"9+	c #C8B537",
"0+	c #CCBD47",
"a+	c #9FB6BA",
"b+	c #8FB6D7",
"c+	c #4584BF",
"d+	c #397BB8",
"e+	c #3879B7",
"f+	c #3777B5",
"g+	c #3575B4",
"h+	c #3474B2",
"i+	c #3271AF",
"j+	c #306EAD",
"k+	c #417DB9",
"l+	c #85C065",
"m+	c #D5ECBB",
"n+	c #97D764",
"o+	c #81CF44",
"p+	c #80CE41",
"q+	c #81CC40",
"r+	c #7DCE3E",
"s+	c #7CCF47",
"t+	c #80CC50",
"u+	c #84CC59",
"v+	c #84CC61",
"w+	c #8BCA6D",
"x+	c #91BAE1",
"y+	c #89AFD3",
"z+	c #3E7FBA",
"A+	c #3678B5",
"B+	c #3576B4",
"C+	c #3373B1",
"D+	c #3171AF",
"E+	c #3370AF",
"F+	c #306DAC",
"G+	c #2F6CAB",
"H+	c #417DB8",
"I+	c #84C064",
"J+	c #D1EBB7",
"K+	c #91D35A",
"L+	c #77CC35",
"M+	c #76CA33",
"N+	c #75C930",
"O+	c #77C43D",
"P+	c #78C53E",
"Q+	c #79C342",
"R+	c #79C145",
"S+	c #7EC04F",
"T+	c #7EC354",
"U+	c #89B2D6",
"V+	c #85ACD0",
"W+	c #3676B4",
"X+	c #3372B0",
"Y+	c #316EAD",
"Z+	c #2F6BAA",
"`+	c #2D69A9",
" @	c #407CB7",
".@	c #84BE62",
"+@	c #CDEBB3",
"@@	c #8BD14C",
"#@	c #71C62C",
"$@	c #70C42F",
"%@	c #6FC131",
"&@	c #6EBF32",
"*@	c #6FBD34",
"=@	c #6EBB3A",
"-@	c #6FB93C",
";@	c #70B940",
">@	c #71BA45",
",@	c #6799C7",
"'@	c #7BA4CB",
")@	c #3A77B5",
"!@	c #3371B0",
"~@	c #326FAE",
"{@	c #306DAD",
"]@	c #2D6BAA",
"^@	c #2E69A9",
"/@	c #2D68A8",
"(@	c #2865A7",
"_@	c #5287B9",
":@	c #83BF5F",
"<@	c #C9E8AE",
"[@	c #85CB4B",
"}@	c #6CC02C",
"|@	c #6BBE2D",
"1@	c #68BB2D",
"2@	c #68B82F",
"3@	c #67B630",
"4@	c #66B432",
"5@	c #66B234",
"6@	c #66B137",
"7@	c #67B13A",
"8@	c #407EBC",
"9@	c #3779B3",
"0@	c #3676B3",
"a@	c #3575B3",
"b@	c #3474B1",
"c@	c #3473B1",
"d@	c #3371AF",
"e@	c #4F83B9",
"f@	c #71B648",
"g@	c #C0E3AE",
"h@	c #7EC64A",
"i@	c #66BA29",
"j@	c #65B72C",
"k@	c #62B42D",
"l@	c #60B22C",
"m@	c #5EAF2C",
"n@	c #5EAD2D",
"o@	c #5DAB2E",
"p@	c #5DAA32",
"q@	c #5DAB2C",
"r@	c #78C246",
"s@	c #79BC47",
"t@	c #61B427",
"u@	c #5FB028",
"v@	c #5DAD28",
"w@	c #5CAB27",
"x@	c #59AA28",
"y@	c #58A625",
"z@	c #57A625",
"A@	c #57A428",
"B@	c #58A730",
"                                                                ",
"                                                                ",
"                                                                ",
"                                                                ",
"                                                                ",
"                                                                ",
"                                                                ",
"                      . + @ # $ % & * = -                       ",
"                    ; > , ' ) ! ~ { ] ^ / (                     ",
"                    _ : < [ } | 1 2 3 4 5 6                     ",
"                    7 8 9 0 ] a b c d e f g                     ",
"                    7 h i j 4 k l m n o p q r s t u v w x       ",
"                    y z A B C D E F G H I J K L M N O P Q R     ",
"                    S T U V W X Y Z `  ...+.@.#.$.%.&.*.=.-.    ",
"        ;.>.,.'.).!.~.{.].^./.(._.:.<.[.}.|.1.2.3.4.5.6.7.8.    ",
"      9.0.a.b.c.d.e.f.g.h.i.j.k.l.m.n.o.p.q.r.s.t.u.v.w.x.y.    ",
"      z.A.B.C.D.E.F.G.H.I.J.K.L.M.N.O.P.Q.R.S.T.6.U.V.W.X.Y.    ",
"      Z.`. +.+++@+#+$+%+&+*+=+-+;+>+,+'+)+!+~+{+V.]+^+/+(+_+    ",
"      :+<+[+}+|+1+2+3+4+5+6+7+8+9+0+a+b+c+{+d+e+f+g+h+i+j+k+    ",
"      l+m+n+o+p+q+r+s+t+u+v+w+      x+y+z+V.A+B+C+D+E+F+G+H+    ",
"      I+J+K+L+M+N+O+P+Q+R+S+T+      U+V+d+W+h+X+E+Y+F+Z+`+ @    ",
"      .@+@@@#@$@%@&@*@=@-@;@>@      ,@'@)@!@~@{@G+]@^@/@(@_@    ",
"      :@<@[@}@|@1@2@3@4@5@6@7@        8@9@0@a@/+b@c@c@d@e@      ",
"      f@g@h@i@j@k@l@m@n@o@p@q@                                  ",
"        r@s@t@u@v@w@x@y@z@A@B@                                  ",
"                                                                ",
"                                                                ",
"                                                                ",
"                                                                ",
"                                                                ",
"                                                                ",
"                                                                "};
