/* XPM */
static const char * const network_transmit_receive[] = {
/* columns rows colors chars-per-pixel */
"24 24 59 1",
"  c #767675",
". c #797978",
"X c #7D7D7C",
"o c #7E7E7D",
"O c #7F7F7E",
"+ c #82847F",
"@ c #3C5DA4",
"# c #6B7887",
"$ c #4263A8",
"% c #416DB2",
"& c #416DB4",
"* c #4471B6",
"= c #4471B7",
"- c #4472B6",
"; c #4B75B7",
": c #4676BA",
"> c #4776BA",
", c #4676BB",
"< c #4D78BA",
"1 c #5D86C2",
"2 c #618BC4",
"3 c #6F94C9",
"4 c #6F95C9",
"5 c #7094C9",
"6 c #7095C9",
"7 c #7297CC",
"8 c #7298CB",
"9 c #7298CC",
"0 c #759BCE",
"q c #779ED0",
"w c #818180",
"e c #909090",
"r c #9D9D9C",
"t c #A4A4A3",
"y c #ADADAC",
"u c #B3B3B3",
"i c #B6B6B6",
"p c #C5C5C5",
"a c #C8C8C7",
"s c #C8C8C8",
"d c #D1D1D1",
"f c #D3D3D3",
"g c #D4D4D4",
"h c #D5D5D5",
"j c #D6D6D6",
"k c #D7D7D7",
"l c #D9D9D9",
"z c #DADAD9",
"x c #E8E8E8",
"c c #EBEBEB",
"v c #ECECEC",
"b c #EBF1F7",
"n c #ECF2F8",
"m c #EDF3F8",
"M c #EEF4F8",
"N c #F0F0F0",
"B c #F3F3F3",
"V c #F2F6FA",
"C c None",
/* pixels */
"CCCCCCCCCCCCCCCCCCCCCCCC",
"CCCCCCCC+++++++++++++CCC",
"CCCCCCCC+abbbbbbbbml+CCC",
"CCCCCCCC+b@$$$$$$$@M+CCC",
"CCCCCCCCwV$5535355$M+CCC",
"CCCCCCCC+M$989897;$M+CCC",
"CCCCCCCC+M$0001<%&$m+CCC",
"CCCCCCCC+n$q2-=---$m+CCC",
"C++++++++++++#::,,$b+CCC",
"C+abbbbbbbbnz+$$$$@b+CCC",
"C+b@$$$$$$$@M+bbbbbd+CCC",
"C+V$5535333$M+++++++CCCC",
"C+M$789899;$M+ccsppc+CCC",
"C+m$0001<%&$M+llllll+CCC",
"C+m$02-----$M++++++++CCC",
"C+n$,,,,,,,$n+CCCOaOCCCC",
"C+V@$$$$$$$@b+CCCOdOCCCC",
"C+gbbbbbbbbbg+CCCO+OCCCC",
"C++++++++++++COOOtglOCCC",
"C+BBdccccsppc+euwivgOCCC",
"C+lllllllllll+OOOriyOCCC",
"C+++++++++++++CCC O.CCCC",
"CCCCCCCCCCCCCCCCCCCCCCCC",
"CCCCCCCCCCCCCCCCCCCCCCCC"
};
