/* XPM */
static const char * const network_offline[] = {
/* columns rows colors chars-per-pixel */
"24 24 48 1",
"  c #364878",
". c #9D0000",
"X c #A40000",
"o c #CC0000",
"O c #924240",
"+ c #82847F",
"@ c #465E8B",
"# c #465E8C",
"$ c #49628F",
"% c #49638F",
"& c #496290",
"* c #4C6793",
"= c #4D6793",
"- c #4C6794",
"; c #516690",
": c #536993",
"> c #5D729A",
", c #6B7887",
"< c #61779D",
"1 c #6F80A3",
"2 c #6F81A3",
"3 c #7081A2",
"4 c #7080A3",
"5 c #7081A3",
"6 c #7283A6",
"7 c #7284A5",
"8 c #7284A6",
"9 c #7587A8",
"0 c #7587A9",
"q c #778AAB",
"w c #C5C5C5",
"e c #C8C8C7",
"r c #C8C8C8",
"t c #D1D1D1",
"y c #D4D4D4",
"u c #D6D6D6",
"i c #D9D9D9",
"p c #DADAD9",
"a c #E8E8E8",
"s c #EBEBEB",
"d c #ECECEC",
"f c #EDEDED",
"g c #EEEEEE",
"h c #EFEFEF",
"j c #F0F0F0",
"k c #F3F3F3",
"l c #FFFFFF",
"z c None",
/* pixels */
"zzzzzzzzzzzzzzzzzzzzzzzz",
"zzzzzzzz+++++++++++++zzz",
"zzzzzzzz+efffffffffi+zzz",
"zzzzzzzz+f         j+zzz",
"zzzzzzzz+k 5415142 j+zzz",
"zzzzzzzz+j 577777; j+zzz",
"zzzzzzzz+h 99q>:@# j+zzz",
"zzzzzzzz+f q<&&&&% f+zzz",
"z++++++++++++,--*& j+zzz",
"z+efffffffffp+     f+zzz",
"z+f         j+fffffu+zzz",
"z+k 4422151 j+++++++zzzz",
"z+j 577577; j+ssrwwa+zzz",
"z+f qqq>:@# j+iiiiii+zzz",
"z+j q<&&&&% f+OXXXXXXXzz",
"z+f =---&-* j+XoooooooXz",
"z+k         f+XollolloXz",
"z+ufffffffffu+XollllloXz",
"z++++++++++++zXoolllooXz",
"z+kjtfsssrwwa+XollllloXz",
"z+iiiiiiiiiii+XollolloXz",
"z+++++++++++++XoooooooXz",
"zzzzzzzzzzzzzz.XXXXXXXzz",
"zzzzzzzzzzzzzzzzzzzzzzzz"
};
