/* XPM */
static const char * const preferences_desktop[] = {
/* columns rows colors chars-per-pixel */
"24 24 51 1",
"  c #4A5153",
". c #555E61",
"X c #5C686B",
"o c #5F6B6F",
"O c #637073",
"+ c #677579",
"@ c #9B9B9B",
"# c #9D9D9D",
"$ c #9F9F9F",
"% c #C4C4C4",
"& c #C5C5C5",
"* c #C6C6C6",
"= c #C7C7C7",
"- c #C8C8C8",
"; c #CCCCCC",
": c #CFCFCF",
"> c #D1D1D1",
", c #D4D4D4",
"< c #DFDFDF",
"1 c #E0E0E0",
"2 c #E1E1E1",
"3 c #E2E2E2",
"4 c #E3E3E3",
"5 c #E4E4E4",
"6 c #E5E5E5",
"7 c #E6E6E6",
"8 c #E7E7E7",
"9 c #E8E8E8",
"0 c #E9E9E9",
"q c #EAEAEA",
"w c #EBEBEB",
"e c #ECECEC",
"r c #EDEDED",
"t c #EFEFED",
"y c #EEEEEE",
"u c #EFEFEF",
"i c #F0F0F0",
"p c #F1F1F1",
"a c #F2F2F2",
"s c #F3F3F3",
"d c #F4F4F4",
"f c #F5F5F5",
"g c #F6F6F6",
"h c #F7F7F7",
"j c #F8F8F8",
"k c #F9F9F9",
"l c #FAFAFA",
"z c #FBFBFB",
"x c #FEFEFD",
"c c #FFFFFF",
"v c None",
/* pixels */
"vvvvvvvvvvvvvvvvvvvvvvvv",
"vvvvvvvvvvvvvvvvvvvvvvvv",
"vvvvvvvvvvvvvvvvvvvvvvvv",
"vvvvvvvvvvvvvvvvvvvvvvvv",
"v$@@@@@@@@@@@@@@@@@@@@$v",
"v@cccccccccccccccccccc@v",
"v@c<11111155555551511c@v",
"v@c1;%%%%-%-%%>505555c@v",
"v@c1:===------,088885c@v",
"v@c55558000000e000885c@v",
"v@c5@@@@@@@00y     00c@v",
"v@c5@cxxcx@eyy.....eyc@v",
"v@c0@cyyyc@uyuoooooeyc@v",
"v@c0@ccccc@pp@@@@@@@yc@v",
"v@c0@@@@@@@pp@ccccc@yc@v",
"v$c0eXXXXXdgg@cyyec$yc@v",
"v@c0yOOOOOggg$cxxxc@pc@v",
"v@cyy+++++ggk@@$@@@@pc@v",
"v@cyyypgggkkkkkkgjggpc@v",
"v@cccccccccccccccccccc@v",
"v$@@@@@@@@@@@@@@@@@@@@$v",
"vvvvvvvvvvvvvvvvvvvvvvvv",
"vvvvvvvvvvvvvvvvvvvvvvvv",
"vvvvvvvvvvvvvvvvvvvvvvvv"
};
