/* XPM */
static char *user_desktop[] = {
/* columns rows colors chars-per-pixel */
"16 16 92 1",
"  c #4C4F34",
". c #343E52",
"X c #343F52",
"o c #343F53",
"O c #3A434C",
"+ c #38424E",
"@ c #374150",
"# c #364151",
"$ c #354053",
"% c #354054",
"& c #364155",
"* c #3F4855",
"= c #404744",
"- c #41474A",
"; c #444C52",
": c #434C59",
"> c #475057",
", c #495157",
"< c #4C5557",
"1 c #4D565C",
"2 c #4B5564",
"3 c #44526A",
"4 c #808266",
"5 c #828565",
"6 c #828665",
"7 c #878A69",
"8 c #878A6A",
"9 c #8F9075",
"0 c #9C9F7C",
"q c #9FA17F",
"w c #9FA27F",
"e c #556784",
"r c #737D8C",
"t c #76849C",
"y c #848C98",
"u c #A1A482",
"i c #A2A482",
"p c #A2A582",
"a c #A3A684",
"s c #A3A785",
"d c #A4A784",
"f c #A4A685",
"g c #A7A988",
"h c #A7AA88",
"j c #A9AB8A",
"k c #AAAB8B",
"l c #A9AC8B",
"z c #AAAC8B",
"x c #ABAD8C",
"c c #ABAD8D",
"v c #ABAE8D",
"b c #ACAE8E",
"n c #ADB08F",
"m c #AEB08F",
"M c #AEB190",
"N c #AFB191",
"B c #B0B291",
"V c #B0B292",
"C c #B0B392",
"Z c #B1B392",
"A c #B3B595",
"S c #B4B696",
"D c #B4B697",
"F c #B5B797",
"G c #B5B897",
"H c #B6B897",
"J c #B5B798",
"K c #B6B898",
"L c #B6B899",
"P c #B7B999",
"I c #B7B99A",
"U c #B8BA9A",
"Y c #B8BA9B",
"T c #B9BB9B",
"R c #B9BB9C",
"E c #BABC9D",
"W c #BBBC9D",
"Q c #BBBD9E",
"! c #BCBE9F",
"~ c #9298A2",
"^ c #909CAF",
"/ c #BBBCAC",
"( c #A5AFBE",
") c #CCCDB9",
"_ c #CDCDB9",
"` c #CDD0BB",
"' c #CFD0BC",
"] c #D1D3BF",
"[ c #B6BECA",
"{ c #D3D4C0",
"} c #D6D7C6",
"| c None",
/* pixels */
"||||||||||||||||",
".&&&@|||||&&&&&&",
"&[((t     @[^^r&",
"&^e3O{{{]_)*(e3&",
"&^2;!!!!EFCc*e3&",
"&r;W!!!EUFACb*3&",
".O/W!!RRPFCmc4+&",
"| '/TTPPPNNza5 |",
"| `WJJFJbczap5 |",
"@O}/FAFCNzapq5O|",
"&t*ECmbjhdpqq<~&",
"&et,mckgdpq01[e&",
"&eet:988666:(ee&",
"&eee2@    =yeee&",
"@&&&&@||||&&&&&o",
"||||||||||||||||"
};
